<svg xmlns="http://www.w3.org/2000/svg" xmlns:xlink="http://www.w3.org/1999/xlink" viewBox="0 0 176.11 213.15"><defs><style>.cls-1{isolation:isolate;}.cls-10,.cls-11,.cls-2{stroke:#524538;stroke-linejoin:round;}.cls-10,.cls-2{stroke-width:4px;}.cls-2{fill:url(#linear-gradient);}.cls-3{fill:#ffcc7b;}.cls-4,.cls-6{fill:#fcf8da;}.cls-5{fill:#fdfdfe;}.cls-6,.cls-7{mix-blend-mode:multiply;}.cls-7{fill:#f7a815;}.cls-8{fill:#524538;}.cls-9{fill:#feddad;}.cls-10,.cls-11{fill:none;}.cls-11{stroke-linecap:round;stroke-width:5px;}.cls-12{fill:#f9f9f9;}.cls-13{fill:#fff;}.cls-14{fill:#45dd2a;}.cls-15{fill:#b5f1aa;}.cls-16{fill:#ffec00;}.cls-17{fill:#fff799;}.cls-18{fill:#fa0;}.cls-19{fill:#fc6;}.cls-20{fill:#00dbff;}.cls-21{fill:#99f1ff;}.cls-22{fill:#fb7bff;}.cls-23{fill:#fdcaff;}.cls-24{fill:#1e4798;}.cls-25{fill:#a9add7;}.cls-26{fill:#e4007d;}.cls-27{fill:#ef86b4;}.cls-28{fill:#fff8ff;}</style><linearGradient id="linear-gradient" x1="131.65" y1="171.46" x2="84.82" y2="13.39" gradientUnits="userSpaceOnUse"><stop offset="0" stop-color="#c56f00"/><stop offset="0.24" stop-color="#c26d00"/><stop offset="0.43" stop-color="#b86701"/><stop offset="0.61" stop-color="#a75c03"/><stop offset="0.64" stop-color="#a35903"/><stop offset="0.7" stop-color="#a95f04"/><stop offset="0.77" stop-color="#bb6f08"/><stop offset="0.86" stop-color="#d78a0e"/><stop offset="0.94" stop-color="#f7a815"/></linearGradient></defs><g class="cls-1"><g id="Layer_2" data-name="Layer 2"><g id="Layer_2-2" data-name="Layer 2"><path class="cls-2" d="M9.25,23.25s12-13,16.6-15.25,25.62-10.87,55,5.21c0,0,13.16-13.77,46.48-10.79s38.32,14.7,40.18,26.79c2,12.89-2.83,19-5.88,23.26S160.42,59,161,61s8.49,27.63,11,51.62c2.79,26.75,2.61,39.27.74,44-1.57,4-17.82,13.27-17.82,13.27"/><path class="cls-3" d="M4.15,155.62S4.79,132,5.74,113.7s6-45.21,4.71-49-11.4-9.15-7.6-28.59S25.66,13.22,42.46,13.6s33.85,7.53,36.76,9.91c0,0,18.7-13.34,43.1-12.19s34.35,8.07,35.8,25.92c1.4,17.09-8.23,19.36-6.65,25.88s8.4,34.47,9.66,65.34,1.33,42.48-13.88,43.62-57-.09-83.93,1-51.88,3.46-56-2.64S4.15,155.62,4.15,155.62Z"/><path class="cls-4" d="M18.6,80.25c-1.53,20.92-1.77,35.06-3.45,56-.44,5.35-.78,11.17,1.65,15.66,3.16,5.87,9.66,7.39,15.42,7.73,41.29,2.43,66.26,3.09,98.84,1.92,7.21-.26,14.87-3.79,16.19-12.13,2.72-17.22,2.64-28.21.31-49.51-1.85-16.84-3.54-27.56-5-40.72-1-8.51,3.19-18.4,0-26.05-2.46-5.86-10.44-9-15.84-9.16S116,25.83,110.73,27.33c-17.24,4.93-35.26,3.15-52.52-1.65-10.74-3-22.19-3.56-31.69,3.24-8.45,6-9.7,17.86-8.83,29.45C18.25,65.76,19.29,70.9,18.6,80.25Z"/><path class="cls-5" d="M30.06,33.12C40.4,28.57,45,27.67,58.44,30S92.18,37.72,108.22,32c25.13-9,33.38,2.83,33.38,2.83-2.42-5.74-10.25-8.85-15.56-9s-10.47,1.83-15.64,3.31c-16.92,4.84-34.62,3.09-51.57-1.62C48.28,24.55,37,24,27.71,30.66,19.41,36.59,18,48.22,19,59.58c.89,9.53.7,24.77.7,24.77A51.88,51.88,0,0,0,21.41,68C20.86,59.06,17.13,38.8,30.06,33.12Z"/><path class="cls-6" d="M20.65,154s-3.6,2.87,35,3.82,76.28,2.64,82.07-1.18,6.33-6.56,7.19-11.65c1-6.1,2.51-20.43,2.32-26.95s2,14.19,2,14.19l-2.9,18.91-3.94,6.68-6.55,3.06-23.59,1.21-70.9-2-18.71-2.76Z"/><path class="cls-7" d="M20.67,157.77s1.24,4.73,13.83,5.1,40.81,2.42,54.79,2.24,32.86.55,42.21-.75,15.83-3.38,17.8-10.62S151.46,137,150.72,125s-1.42,4.82-1.42,4.82l-.16,17.9-4.73,8.09L140.63,159l-7.24,2.38-20.09,2.29L90,162.09H55.64l-18.81-2.21-11.35.2Z"/><path class="cls-8" d="M16.73,80.25c-1.36,18.64-2,37.33-3.46,56-.35,4.36-.66,8.9.53,13.17a15.23,15.23,0,0,0,7,9.15,24.8,24.8,0,0,0,10.46,2.88c4.84.4,9.71.57,14.55.83,16.65.89,33.3,1.58,50,1.7q11.53.08,23.07-.19,5.91-.12,11.84-.34A23.91,23.91,0,0,0,140.81,161a15.41,15.41,0,0,0,7.09-7.26c1.61-3.61,1.8-7.88,2.27-11.76a139.39,139.39,0,0,0,.89-22.09c-.68-17.44-3.43-34.78-5.62-52.07A87.14,87.14,0,0,1,144.26,56c.05-4.37.94-8.68,1.25-13,.29-4,.09-8.35-2-11.91a17.3,17.3,0,0,0-8-6.76,23,23,0,0,0-10.3-2.18c-4.87.18-9.5,1.8-14.13,3.17A81.45,81.45,0,0,1,81.9,28.12,110,110,0,0,1,67.24,26c-4.63-1-9.16-2.46-13.81-3.34C44.88,21,35.84,21.32,28.11,25.68a22.25,22.25,0,0,0-8.28,7.81A29.29,29.29,0,0,0,16.2,44.13c-1.23,7.95-.14,15.79.49,23.73a84,84,0,0,1,0,12.39c-.17,2.41,3.58,2.4,3.75,0a84,84,0,0,0,0-12.39c-.29-3.62-.75-7.24-1-10.87-.43-7.2-.24-15.25,3.6-21.61,4.05-6.69,12.35-9.67,19.84-9.92,8.9-.3,17.26,3,25.89,4.64a100.25,100.25,0,0,0,28.29,1.66A78.31,78.31,0,0,0,111,29.2c4.53-1.27,9.06-3.07,13.8-3.34,5.87-.34,13.8,2.34,16.1,8.29,1.42,3.69,1,7.83.58,11.67-.47,4.16-1.22,8.36-.9,12.56.58,7.56,1.85,15.12,2.83,22.64,1.15,8.91,2.26,17.84,3.08,26.8a177.51,177.51,0,0,1,.85,22.71c-.14,3.58-.42,7.14-.83,10.7q-.33,2.76-.73,5.5a20.41,20.41,0,0,1-1.26,5.4,12.25,12.25,0,0,1-6.61,6.09c-3.08,1.29-6.29,1.42-9.58,1.53q-11.28.38-22.57.45c-15.33.09-30.67-.32-46-1-9.18-.41-18.37-.87-27.55-1.45a21.54,21.54,0,0,1-9.54-2.44A11.91,11.91,0,0,1,17,146.58c-.76-4.36-.1-8.94.23-13.31.35-4.54.65-9.08.93-13.63.51-8.55.9-17.1,1.4-25.64.27-4.59.56-9.17.9-13.75C20.65,77.84,16.9,77.85,16.73,80.25Z"/><path class="cls-9" d="M4.11,49.48s-.65-18.25,9.12-25c8.55-5.94,16.72-8.75,39.34-6.52s27.6,7.46,27.6,7.46,18.47-9.91,36.24-11c17.16-1,40.26.29,40.07,25.81s.73-9,.73-9l-6.09-11.84-11.66-5.06-17.14-3-13-.07L91.91,16.87,83.67,20.8l-4.45,2.71L66.87,18.07l-21.05-4.3-15.69.4L17.62,17.49,9.25,23.25,4.56,30.44,2,43.87l.64,6.57Z"/><path class="cls-7" d="M5,165.15s1.33,7.07,19.51,6.51,55.77-2.09,70.19-1.95,45.05.14,51.57-.42,9.45-2.68,11.27-7.2,2.23-19.45,2.09-26.43,1.4,4.55,1.4,4.55l-.84,16.4-.15,6.12-5.1,7.18-5.61,1.79-14.93.83-62.75.33-45.27,1.67-13.75-1.2L6.67,171Z"/><path class="cls-10" d="M4.15,155.62S4.79,132,5.74,113.7s6-45.21,4.71-49-11.4-9.15-7.6-28.59S25.66,13.22,42.46,13.6s33.85,7.53,36.76,9.91c0,0,18.7-13.34,43.1-12.19s34.35,8.07,35.8,25.92c1.4,17.09-8.23,19.36-6.65,25.88s8.4,34.47,9.66,65.34,1.33,42.48-13.88,43.62-57-.09-83.93,1-51.88,3.46-56-2.64S4.15,155.62,4.15,155.62Z"/><path class="cls-11" d="M79.6,114.29s12.48,1,18.38-6.31"/><circle class="cls-8" cx="55.93" cy="92.22" r="10.57"/><circle class="cls-8" cx="110.75" cy="92.22" r="10.57"/><path class="cls-8" d="M2.55,196.83c0-.63,0-1.25,0-1.88,0-2.07,0-4.18,0-6.25a4.74,4.74,0,0,1,.11-1.07,1.82,1.82,0,0,1,.81-1.14,3.23,3.23,0,0,1,1.07-.26c1.41-.11,2.77-.15,4.18-.15h5.65a1.69,1.69,0,0,1,.74.15,1.52,1.52,0,0,1,.92,1.4c0,.74,0,1.48,0,2.22,0,.11,0,.22,0,.37a3.9,3.9,0,0,1-.23.63.77.77,0,0,1-.73.48,7.48,7.48,0,0,1-.82,0,30.69,30.69,0,0,0-3.32.11c-.45,0-.85,0-1.29,0a7.49,7.49,0,0,0-.82,0,.53.53,0,0,0-.48.37,2,2,0,0,0-.22.92c0,.93,0,1.85,0,2.78a1.26,1.26,0,0,0,.29.66.52.52,0,0,0,.37.19c.56,0,1.07,0,1.59-.08.11,0,.22,0,.33,0,1,0,2,0,3,.08a.76.76,0,0,1,.85.85c0,.77,0,1.59,0,2.4a1,1,0,0,1,0,.29.88.88,0,0,1-.85.85,7.49,7.49,0,0,1-1.89.08c-1,0-2,0-2.92,0a.88.88,0,0,0-.74.4,1.43,1.43,0,0,0-.29.85c0,.82,0,1.63,0,2.44,0,1.67,0,3.33,0,5a10.67,10.67,0,0,1-.11,1.85l-.11.4a.78.78,0,0,1-.74.59c-.56,0-1.07,0-1.63,0s-1,0-1.55,0a.83.83,0,0,1-.74-.44,1.89,1.89,0,0,1-.37-1.19v-1.47c0-.59,0-1.18,0-1.78v-10.6Z"/><path class="cls-8" d="M25.12,186.27a1.35,1.35,0,0,1,1,.29,4.58,4.58,0,0,1,.92.78,1.2,1.2,0,0,1,.19.29,7.62,7.62,0,0,1,.48,1.74,9.68,9.68,0,0,0,.33,1.37c.15.59.29,1.18.41,1.77a.33.33,0,0,1,0,.15,3.82,3.82,0,0,0,.3,1.44c.22.74.4,1.48.63,2.21a3.48,3.48,0,0,0,.18.63c.15.59.3,1.19.44,1.78.3,1.07.63,2.14.93,3.21.37,1.44.7,2.92,1.07,4.36.22.85.48,1.66.7,2.47.15.52.3,1,.41,1.52a3.09,3.09,0,0,1-.19,1.11,1.67,1.67,0,0,1-1.25,1,5.68,5.68,0,0,1-3.14,0,.22.22,0,0,0-.11,0,5.53,5.53,0,0,1-.85-.82,2,2,0,0,1-.52-1.1,1,1,0,0,0-.67-.85c-.11,0-.22,0-.33,0-1,0-2.07,0-3.1-.07-.19,0-.41,0-.63,0a.78.78,0,0,0-.78.33,4.67,4.67,0,0,0-.4.81,2.28,2.28,0,0,1-1,1.33,2.86,2.86,0,0,1-.44.3,2.15,2.15,0,0,1-1.07.26,9,9,0,0,1-2.26-.26,4.13,4.13,0,0,1-.88-.37.66.66,0,0,1-.34-.63,3.38,3.38,0,0,1,.15-1.44c.19-.59.41-1.22.56-1.85s.29-1.25.44-1.88c.22-.92.41-1.85.63-2.77.29-1.15.62-2.25.92-3.36.15-.7.33-1.37.48-2l.55-2c.15-.48.26-.92.41-1.4.3-1,.63-2,.89-3,.15-.56.22-1.15.37-1.74a22.24,22.24,0,0,1,.7-2.14,2.14,2.14,0,0,1,1.55-1.19h.15a3.35,3.35,0,0,1,1.48-.14Zm-.37,16.58a.67.67,0,0,0,.74-.88,3.78,3.78,0,0,0-.19-.63c-.15-.44-.29-.89-.4-1.33s-.19-1.07-.3-1.63a1.42,1.42,0,0,1-.07-.22c-.08-.15-.19-.15-.3,0s-.07.22-.11.33c-.15.82-.48,1.63-.59,2.48a1.56,1.56,0,0,1-.11.41c-.08.22-.19.48-.26.73s0,.56.33.6.78.11,1.15.14Z"/><path class="cls-8" d="M40.26,193c0,.92,0,1.81.08,2.7v5.39c0,1.4-.11,2.81-.15,4.25,0,.77,0,1.59-.07,2.4s-.08,1.44-.11,2.18c0,.33,0,.7-.11,1a1.21,1.21,0,0,1-.19.59,3,3,0,0,1-.29.52,1.36,1.36,0,0,1-1.22.63,4.21,4.21,0,0,1-.71,0,1.84,1.84,0,0,1-1.36-.44,2.34,2.34,0,0,1-.48-.71,3.12,3.12,0,0,1-.3-1.55c0-1.29.11-2.55.15-3.8,0-.63,0-1.26,0-1.85V198c0-1,0-2-.11-3a41.57,41.57,0,0,1,0-5.35,11.1,11.1,0,0,1,.11-1.52,3.34,3.34,0,0,1,.63-1.4.81.81,0,0,1,.74-.41c.74,0,1.47,0,2.21.08a.74.74,0,0,1,.63.4,2.83,2.83,0,0,1,.41,1.41c0,.74,0,1.44,0,2.47C40.15,191.22,40.23,192.1,40.26,193Z"/><path class="cls-8" d="M48,211a2.18,2.18,0,0,1-.71,1.59,1.83,1.83,0,0,1-1.22.51,5.06,5.06,0,0,1-1.1,0,2.28,2.28,0,0,1-1.7-.77,1.67,1.67,0,0,1-.45-1.07c0-.93,0-1.85-.07-2.77,0-1.48-.07-3-.11-4.47-.07-1.89-.11-3.74-.19-5.62,0-1.4-.11-2.81-.14-4.21,0-1,0-1.92,0-2.88s.19-1.66.26-2.48v-.11a3.86,3.86,0,0,1,.89-1.48,1.13,1.13,0,0,1,.92-.33c.52,0,1,0,1.48,0a6.08,6.08,0,0,1,.74,0c1,0,2,0,2.92,0s2.07,0,3.06,0a4.23,4.23,0,0,1,1.19.19,5.57,5.57,0,0,1,3,2.59,5.45,5.45,0,0,1,.41.84,13.27,13.27,0,0,1,1,5v1.95a11.35,11.35,0,0,1-.66,3.11,6.75,6.75,0,0,1-.93,1.81,2.14,2.14,0,0,1-.29.33,1.37,1.37,0,0,0-.3,1.81c.19.37.33.74.52,1.07.22.52.44,1,.66,1.51a.28.28,0,0,0,.08.19,12.83,12.83,0,0,0,.81,1.92,3.19,3.19,0,0,1,.26.92c.07.37.11.74.15,1.15a1.47,1.47,0,0,1-.59,1.22,1.2,1.2,0,0,1-1,.26l-.6,0a8.85,8.85,0,0,1-1,0,4.5,4.5,0,0,1-1.55-.44,2.15,2.15,0,0,1-.85-.89,10.39,10.39,0,0,0-.44-1.07c-.23-.4-.48-.77-.74-1.18a12,12,0,0,1-.93-1.74,3.09,3.09,0,0,1-.18-.37,4.57,4.57,0,0,1-.33-.81.87.87,0,0,0-1-.7,4.09,4.09,0,0,1-.7,0,.45.45,0,0,0-.45.33A3.48,3.48,0,0,0,48,207c0,.67,0,1.33,0,2Zm0-14.56c0,.85,0,1.7-.07,2.59v.66a.89.89,0,0,0,1,1h.74a.8.8,0,0,0,.26,0,7.83,7.83,0,0,0,1.25-.45,2.56,2.56,0,0,0,.89-.66,3.35,3.35,0,0,0,.7-1.44,13.69,13.69,0,0,0,.07-2.48,6.52,6.52,0,0,0-.07-.88,5.71,5.71,0,0,0-.33-1.11,4.7,4.7,0,0,0-.59-1,2.11,2.11,0,0,0-1.66-.78h-.71a1.58,1.58,0,0,0-1,.41,1.35,1.35,0,0,0-.48,1.07v3.14Z"/><path class="cls-8" d="M62.28,186.53a2.59,2.59,0,0,1,1.22.7,1.87,1.87,0,0,1,.26.33,8.11,8.11,0,0,1,.48,1c.37.78.67,1.56,1,2.29a5.79,5.79,0,0,0,.56,1,.37.37,0,0,0,.41.26.37.37,0,0,0,.4-.22c.3-.48.56-1,.81-1.45.48-.92,1-1.81,1.48-2.73,0-.11.15-.18.26-.29a3.71,3.71,0,0,1,.92-.56,1,1,0,0,1,.34-.07,10.13,10.13,0,0,1,2.36.22,1.29,1.29,0,0,1,.78.85,1.9,1.9,0,0,1,0,1c-.22.7-.52,1.36-.81,2.07s-.67,1.47-.93,2.21A29.54,29.54,0,0,1,70.59,196c-.29.7-.62,1.4-.88,2.14a9.5,9.5,0,0,0-.63,3.21c0,1.33-.07,2.63-.07,3.92,0,.7,0,1.36,0,2.07v3.17a2.74,2.74,0,0,1-.45,1.33,1.74,1.74,0,0,1-1.44.78,5.22,5.22,0,0,1-2.14-.33,1.27,1.27,0,0,1-.74-.89,4.49,4.49,0,0,1-.11-1c0-1.81-.11-3.58-.11-5.36s.07-3.43.07-5.13a7.65,7.65,0,0,0-.51-2.7,3.55,3.55,0,0,0-.37-.59c-.63-1-1.22-2.07-1.78-3.1-.4-.85-.85-1.63-1.29-2.44L59.59,190a4,4,0,0,0-.37-.52,2.35,2.35,0,0,1-.45-1.7,1.55,1.55,0,0,1,1-1.25A2.64,2.64,0,0,1,61,186.3C61.4,186.38,61.84,186.41,62.28,186.53Z"/><path class="cls-8" d="M83.34,199c0-1-.11-2-.15-3,0-1.44-.07-2.84,0-4.29,0-.4,0-.81,0-1.22a6.74,6.74,0,0,1,.08-2.1,6.06,6.06,0,0,1,.29-1.15,1.66,1.66,0,0,1,1.59-1.21h.7c.59,0,1.18,0,1.81.07h.26a17.62,17.62,0,0,1,2.81-.19,19.86,19.86,0,0,1,2.18.08,5.3,5.3,0,0,1,2.21.55,3.25,3.25,0,0,1,1,.74,11,11,0,0,1,.93,1.33,8.6,8.6,0,0,1,1.14,3.14,8.8,8.8,0,0,1,.07,1.7,10.83,10.83,0,0,1-.07,1.51,5.59,5.59,0,0,1-.66,2.18,3.53,3.53,0,0,1-.71.85,1.16,1.16,0,0,0-.25,1,.83.83,0,0,0,.11.15,4.44,4.44,0,0,0,.4.52,3.79,3.79,0,0,1,.85,1.48c.11.44.3.85.37,1.29a10.54,10.54,0,0,1,.15,2.44c0,.59-.11,1.18-.15,1.81s-.15,1.11-.22,1.66a5.94,5.94,0,0,1-.26.78A7.61,7.61,0,0,1,96.68,211a3.46,3.46,0,0,1-2.52,1.33c-.33,0-.7.11-1,.15s-.74,0-1.07.07c-.67,0-1.29,0-2,0a16.56,16.56,0,0,1-2-.11,12.61,12.61,0,0,0-2.88,0,1.74,1.74,0,0,1-1.18-.4,2.22,2.22,0,0,1-.78-2c0-1.11,0-2.22.08-3.36,0-.93,0-1.89,0-2.81C83.38,202.23,83.38,200.64,83.34,199Zm5.39-5.1c0,.52,0,1,0,1.52a.88.88,0,0,0,1.07.88,1.58,1.58,0,0,1,.37,0l1.74-.11a1.88,1.88,0,0,0,1.15-.7.76.76,0,0,0,.14-.49,5.7,5.7,0,0,0-.62-2.54,1.73,1.73,0,0,0-1.59-1,4.65,4.65,0,0,0-1.44.07.93.93,0,0,0-.89,1c0,.44,0,.92,0,1.36Zm.41,13a2.78,2.78,0,0,0,.18.48.35.35,0,0,0,.34.19,5.89,5.89,0,0,0,3.25-.78,2.09,2.09,0,0,0,1-1.51,5.52,5.52,0,0,0-.59-3,1.9,1.9,0,0,0-1.52-1.07,7.46,7.46,0,0,0-2.21.08.48.48,0,0,0-.34.25,3.12,3.12,0,0,0-.22,1.22v1.41C89.07,205.18,89.1,206.07,89.14,207Z"/><path class="cls-8" d="M106.28,211a2.21,2.21,0,0,1-.7,1.59,1.85,1.85,0,0,1-1.22.51,5.15,5.15,0,0,1-1.11,0,2.31,2.31,0,0,1-1.7-.77,1.65,1.65,0,0,1-.44-1.07c0-.93,0-1.85-.07-2.77,0-1.48-.08-3-.12-4.47-.07-1.89-.11-3.74-.18-5.62,0-1.4-.11-2.81-.15-4.21,0-1,0-1.92,0-2.88s.18-1.66.26-2.48v-.11a3.84,3.84,0,0,1,.88-1.48,1.15,1.15,0,0,1,.93-.33c.52,0,1,0,1.48,0a5.92,5.92,0,0,1,.73,0c1,0,2,0,2.92,0s2.07,0,3.07,0a4.16,4.16,0,0,1,1.18.19,5.59,5.59,0,0,1,3,2.59,5.45,5.45,0,0,1,.41.84,13.27,13.27,0,0,1,1,5v1.95a11,11,0,0,1-.67,3.11,6.44,6.44,0,0,1-.92,1.81,2.24,2.24,0,0,1-.3.33,1.38,1.38,0,0,0-.29,1.81c.18.37.33.74.52,1.07.22.52.44,1,.66,1.51a.33.33,0,0,0,.07.19,12.89,12.89,0,0,0,.82,1.92,4,4,0,0,1,.26.92,10,10,0,0,1,.14,1.15,1.44,1.44,0,0,1-.59,1.22,1.19,1.19,0,0,1-1,.26l-.59,0a8.85,8.85,0,0,1-1,0,4.56,4.56,0,0,1-1.56-.44,2.13,2.13,0,0,1-.84-.89,8.58,8.58,0,0,0-.45-1.07c-.22-.4-.48-.77-.74-1.18a13,13,0,0,1-.92-1.74,3.28,3.28,0,0,1-.19-.37,5.47,5.47,0,0,1-.33-.81.87.87,0,0,0-1-.7,4.09,4.09,0,0,1-.7,0,.43.43,0,0,0-.44.33,3.49,3.49,0,0,0-.19,1.07c0,.67,0,1.33,0,2Zm0-14.56c0,.85,0,1.7-.08,2.59v.66a.9.9,0,0,0,1,1h.73a.74.74,0,0,0,.26,0,7.93,7.93,0,0,0,1.26-.45,2.43,2.43,0,0,0,.88-.66,3.25,3.25,0,0,0,.71-1.44,13.69,13.69,0,0,0,.07-2.48,8.69,8.69,0,0,0-.07-.88,5.11,5.11,0,0,0-.34-1.11,4.32,4.32,0,0,0-.59-1,2.08,2.08,0,0,0-1.66-.78h-.7a1.63,1.63,0,0,0-1,.41,1.42,1.42,0,0,0-.48,1.07v3.14Z"/><path class="cls-8" d="M133.21,207.47a1.34,1.34,0,0,1,1.41.85,4.93,4.93,0,0,1,.29,2.81,4.32,4.32,0,0,1-.29.88.88.88,0,0,1-.71.49c-.51,0-1,0-1.51,0-.3,0-.59,0-.92,0-.82,0-1.67.07-2.48.07-.59,0-1.14,0-1.7,0l-3.91.11c-.78,0-1.56,0-2.33-.07h-.15c-.29-.23-.59-.41-.85-.63a.74.74,0,0,1-.15-.26,4.45,4.45,0,0,1-.26-2c.08-1.11.12-2.18.19-3.25.07-1.44.11-2.88.18-4.32,0-.56,0-1.15.08-1.7a27.35,27.35,0,0,0,0-3.51v-.3c-.07-2-.11-3.88-.15-5.83a14.48,14.48,0,0,1,.15-1.7,2.44,2.44,0,0,1,.15-.74,8.08,8.08,0,0,1,.63-1.63,1.25,1.25,0,0,1,.66-.55,3.65,3.65,0,0,1,1.22-.15c.63,0,1.26,0,1.88.08.82,0,1.63.07,2.44.14a32.89,32.89,0,0,0,3.44,0,18.91,18.91,0,0,1,2-.07,4,4,0,0,1,.89.18,2.44,2.44,0,0,1,.52.19,1.25,1.25,0,0,1,.7,1,6.83,6.83,0,0,1,.07,2.88,1,1,0,0,1-.33.63,3.35,3.35,0,0,1-1.15.7,5.24,5.24,0,0,1-1.07.11h-.29a8.32,8.32,0,0,1-2.18.11,6.36,6.36,0,0,0-1.44.11c-.15,0-.33,0-.52.08a7.47,7.47,0,0,0-.92.18.7.7,0,0,0-.63.74c0,.48,0,1,0,1.44v.33a.84.84,0,0,0,.59.74,1.08,1.08,0,0,0,.37,0c.41,0,.85,0,1.26,0h.44c.78.08,1.55,0,2.29,0a1.43,1.43,0,0,1,1.44,1.18c.08.26.08.52.15.78a3,3,0,0,1,.08.85,1.6,1.6,0,0,1-.67,1.36,1.77,1.77,0,0,1-1.11.41c-.33,0-.66.07-1,.07a.41.41,0,0,1-.22,0c-.63.08-1.25.11-1.84.15-.41,0-.82.11-1.19.15s-.44.22-.51.51A11,11,0,0,0,126,203a17.79,17.79,0,0,0-.08,2.73,7.4,7.4,0,0,0,.12.93c0,.51.4.73.85.81s.73,0,1.1.07h1.41v0C130.66,207.55,132,207.51,133.21,207.47Z"/><path class="cls-8" d="M146.51,186.27a1.34,1.34,0,0,1,1,.29,4.64,4.64,0,0,1,.93.78,1.53,1.53,0,0,1,.18.29,7.15,7.15,0,0,1,.48,1.74,11.28,11.28,0,0,0,.33,1.37c.15.59.3,1.18.41,1.77a.26.26,0,0,1,0,.15,3.63,3.63,0,0,0,.29,1.44c.22.74.41,1.48.63,2.21a4.54,4.54,0,0,0,.18.63l.45,1.78c.29,1.07.63,2.14.92,3.21.37,1.44.7,2.92,1.07,4.36.22.85.48,1.66.71,2.47.14.52.29,1,.4,1.52a2.87,2.87,0,0,1-.18,1.11,1.67,1.67,0,0,1-1.26,1,5.68,5.68,0,0,1-3.14,0,.22.22,0,0,0-.11,0,5.53,5.53,0,0,1-.85-.82,2.05,2.05,0,0,1-.52-1.1,1,1,0,0,0-.66-.85c-.11,0-.22,0-.33,0-1,0-2.07,0-3.11-.07-.18,0-.4,0-.63,0a.76.76,0,0,0-.77.33,4.75,4.75,0,0,0-.41.81,2.21,2.21,0,0,1-1,1.33,2.45,2.45,0,0,1-.44.3,2.12,2.12,0,0,1-1.07.26,8.88,8.88,0,0,1-2.25-.26,4.2,4.2,0,0,1-.89-.37.65.65,0,0,1-.33-.63,3.1,3.1,0,0,1,.15-1.44c.18-.59.4-1.22.55-1.85s.3-1.25.44-1.88c.22-.92.41-1.85.63-2.77.3-1.15.63-2.25.92-3.36.15-.7.34-1.37.49-2s.36-1.37.55-2c.15-.48.26-.92.4-1.4.3-1,.63-2,.89-3,.15-.56.22-1.15.37-1.74s.41-1.44.7-2.14a2.16,2.16,0,0,1,1.55-1.19h.15a3.35,3.35,0,0,1,1.48-.14Zm-.37,16.58a.67.67,0,0,0,.74-.88,5,5,0,0,0-.18-.63c-.15-.44-.3-.89-.41-1.33s-.18-1.07-.3-1.63c0-.07,0-.14-.07-.22s-.18-.15-.29,0-.08.22-.12.33c-.14.82-.48,1.63-.59,2.48a1.56,1.56,0,0,1-.11.41c-.07.22-.18.48-.26.73s0,.56.34.6.77.11,1.14.14Z"/><path class="cls-8" d="M156.63,191.59c0-.63.12-1.26.15-1.89a13.7,13.7,0,0,1,.33-2.07,2,2,0,0,1,1.81-1.44c.71,0,1.45-.07,2.15-.14a12.27,12.27,0,0,1,2.1,0c.93,0,1.85.07,2.74.14.44,0,.88.15,1.33.22.26,0,.51.12.77.15.08,0,.19,0,.26.08a11.71,11.71,0,0,1,2.4,1.14,5.07,5.07,0,0,1,1.44,1.48,8.12,8.12,0,0,1,.7,1.25c.23.45.37,1,.56,1.45.07.18.11.37.18.55s.11.41.15.59c.08.63.15,1.22.26,1.85v.18c0,1.41.18,2.77.15,4.18,0,.81-.08,1.66-.15,2.47a17.76,17.76,0,0,1-.59,2.81,2,2,0,0,0-.11.59,7.53,7.53,0,0,1-.48,1.48,12.09,12.09,0,0,1-1.59,2.66,4.93,4.93,0,0,1-.78.74,9,9,0,0,1-2.51,1.55,5.71,5.71,0,0,1-1.14.4,6.84,6.84,0,0,1-1.37.15c-.63.08-1.26.08-1.88.11-.37,0-.74,0-1.15,0-1,0-1.92,0-2.88,0a8.36,8.36,0,0,1-1,0,.45.45,0,0,1-.29-.07,2.26,2.26,0,0,1-1.11-1.3c0-.14,0-.29-.08-.44,0-.59,0-1.15-.07-1.74-.07-1.07-.15-2.18-.22-3.25,0-.22,0-.44,0-.66,0-2.14,0-4.29-.07-6.47S156.6,193.88,156.63,191.59Zm6,12.11v1.81a.83.83,0,0,0,.77.82,2.46,2.46,0,0,0,.52,0,16.51,16.51,0,0,0,2.33-1,2.72,2.72,0,0,0,.7-.59,6.34,6.34,0,0,0,1.14-2.4,17.06,17.06,0,0,0,.48-4.55,9.1,9.1,0,0,0-.51-2.81,6.56,6.56,0,0,0-2-2.58s-.11-.11-.18-.11c-.45-.15-.89-.33-1.33-.45s-.63-.07-.93-.11a.49.49,0,0,0-.55.37c-.07.26-.19.56-.26.85s0,.37-.07.56a10.73,10.73,0,0,0-.19,1.11c0,.36,0,.73-.07,1.07v1.55c0,.92,0,1.81,0,2.73C162.58,201.23,162.62,202.45,162.66,203.7Z"/></g><g id="Layer_1-2" data-name="Layer 1"><circle class="cls-12" cx="127.16" cy="49.28" r="1.88"/><path class="cls-13" d="M125.75,49.56a1.69,1.69,0,0,1,1.69-1.69A1.71,1.71,0,0,1,129,48.92a1.88,1.88,0,1,0-2.21,2.21A1.69,1.69,0,0,1,125.75,49.56Z"/><circle class="cls-12" cx="37.75" cy="51.48" r="1.88"/><path class="cls-13" d="M36.34,51.76a1.69,1.69,0,0,1,3.26-.64,1.88,1.88,0,0,0-3.73.36,1.87,1.87,0,0,0,1.52,1.84A1.67,1.67,0,0,1,36.34,51.76Z"/><circle class="cls-12" cx="78.98" cy="51.39" r="1.88"/><path class="cls-13" d="M77.57,51.67A1.69,1.69,0,0,1,80.83,51a1.88,1.88,0,1,0-2.21,2.2A1.69,1.69,0,0,1,77.57,51.67Z"/><circle class="cls-12" cx="91.48" cy="40.14" r="1.88"/><path class="cls-13" d="M90.07,40.42a1.69,1.69,0,0,1,3.26-.64A1.88,1.88,0,1,0,91.13,42,1.71,1.71,0,0,1,90.07,40.42Z"/><circle class="cls-12" cx="105.93" cy="61.05" r="1.88"/><path class="cls-13" d="M104.52,61.34a1.69,1.69,0,0,1,3.26-.64,1.89,1.89,0,1,0-2.21,2.2A1.68,1.68,0,0,1,104.52,61.34Z"/><circle class="cls-12" cx="91.48" cy="71.13" r="1.88"/><path class="cls-13" d="M90.07,71.41a1.69,1.69,0,0,1,3.26-.64A1.88,1.88,0,1,0,91.13,73,1.71,1.71,0,0,1,90.07,71.41Z"/><circle class="cls-12" cx="121.02" cy="74.9" r="1.88"/><path class="cls-13" d="M119.61,75.18a1.69,1.69,0,0,1,3.26-.64,1.88,1.88,0,0,0-3.73.36,1.87,1.87,0,0,0,1.52,1.84A1.69,1.69,0,0,1,119.61,75.18Z"/><circle class="cls-12" cx="127.31" cy="53.99" r="1.88"/><path class="cls-13" d="M125.9,54.27a1.69,1.69,0,0,1,3.26-.64A1.88,1.88,0,1,0,127,55.84,1.7,1.7,0,0,1,125.9,54.27Z"/><circle class="cls-12" cx="128.08" cy="36.41" r="1.88"/><path class="cls-13" d="M126.67,36.69a1.69,1.69,0,0,1,3.25-.64,1.88,1.88,0,1,0-2.2,2.2A1.67,1.67,0,0,1,126.67,36.69Z"/><circle class="cls-12" cx="101.96" cy="35.95" r="1.88"/><path class="cls-13" d="M100.55,36.23a1.69,1.69,0,0,1,3.26-.64,1.89,1.89,0,1,0-2.21,2.21A1.7,1.7,0,0,1,100.55,36.23Z"/><circle class="cls-12" cx="53.99" cy="33.12" r="1.88"/><path class="cls-13" d="M52.58,33.4a1.69,1.69,0,0,1,3.26-.64A1.89,1.89,0,1,0,53.63,35,1.67,1.67,0,0,1,52.58,33.4Z"/><circle class="cls-12" cx="49.09" cy="43" r="1.88"/><path class="cls-13" d="M47.68,43.28a1.69,1.69,0,0,1,3.26-.64,1.89,1.89,0,1,0-2.21,2.2A1.67,1.67,0,0,1,47.68,43.28Z"/><circle class="cls-12" cx="25.9" cy="53.23" r="1.88"/><path class="cls-13" d="M24.49,53.52a1.69,1.69,0,0,1,3.26-.64,1.88,1.88,0,1,0-2.2,2.2A1.69,1.69,0,0,1,24.49,53.52Z"/><circle class="cls-12" cx="49.18" cy="74.65" r="1.88"/><path class="cls-13" d="M47.77,74.93A1.69,1.69,0,0,1,51,74.29a1.88,1.88,0,1,0-2.2,2.21A1.7,1.7,0,0,1,47.77,74.93Z"/><circle class="cls-12" cx="40.81" cy="83.02" r="1.88"/><path class="cls-13" d="M39.4,83.3a1.69,1.69,0,0,1,3.26-.64,1.88,1.88,0,1,0-2.21,2.2A1.69,1.69,0,0,1,39.4,83.3Z"/><circle class="cls-12" cx="85.83" cy="106.41" r="1.88"/><path class="cls-13" d="M84.42,106.69a1.69,1.69,0,0,1,3.26-.64,1.88,1.88,0,1,0-2.21,2.2A1.69,1.69,0,0,1,84.42,106.69Z"/><circle class="cls-12" cx="43.93" cy="103.28" r="1.88"/><path class="cls-13" d="M42.52,103.56a1.69,1.69,0,0,1,1.69-1.69,1.71,1.71,0,0,1,1.57,1,1.89,1.89,0,1,0-2.21,2.21A1.69,1.69,0,0,1,42.52,103.56Z"/><circle class="cls-12" cx="70.3" cy="96.83" r="1.88"/><path class="cls-13" d="M68.89,97.11a1.69,1.69,0,0,1,3.26-.64,1.88,1.88,0,0,0-3.73.36,1.87,1.87,0,0,0,1.52,1.84A1.67,1.67,0,0,1,68.89,97.11Z"/><circle class="cls-12" cx="76.19" cy="77.9" r="1.88"/><path class="cls-13" d="M74.78,78.18A1.69,1.69,0,0,1,78,77.54a1.89,1.89,0,1,0-2.21,2.2A1.67,1.67,0,0,1,74.78,78.18Z"/><circle class="cls-12" cx="96.12" cy="84.37" r="1.88"/><path class="cls-13" d="M94.71,84.65A1.69,1.69,0,0,1,98,84a1.88,1.88,0,1,0-2.2,2.21A1.7,1.7,0,0,1,94.71,84.65Z"/><circle class="cls-12" cx="95.18" cy="96.79" r="1.88"/><path class="cls-13" d="M93.77,97.07a1.69,1.69,0,0,1,1.69-1.69A1.71,1.71,0,0,1,97,96.43a1.88,1.88,0,1,0-2.21,2.21A1.69,1.69,0,0,1,93.77,97.07Z"/><circle class="cls-12" cx="108.35" cy="115.28" r="1.88"/><path class="cls-13" d="M106.94,115.56a1.69,1.69,0,0,1,3.25-.64,1.88,1.88,0,1,0-2.2,2.21A1.7,1.7,0,0,1,106.94,115.56Z"/><circle class="cls-12" cx="115.97" cy="114.24" r="1.88"/><path class="cls-13" d="M114.56,114.52a1.69,1.69,0,0,1,1.69-1.69,1.71,1.71,0,0,1,1.57,1,1.88,1.88,0,1,0-2.21,2.21A1.7,1.7,0,0,1,114.56,114.52Z"/><circle class="cls-12" cx="122.9" cy="99.55" r="1.88"/><path class="cls-13" d="M121.49,99.83a1.69,1.69,0,0,1,3.26-.64,1.88,1.88,0,1,0-2.2,2.21A1.71,1.71,0,0,1,121.49,99.83Z"/><circle class="cls-12" cx="136.62" cy="91.38" r="1.88"/><path class="cls-13" d="M135.21,91.66a1.69,1.69,0,0,1,3.26-.64,1.88,1.88,0,0,0-3.73.36,1.87,1.87,0,0,0,1.52,1.84A1.69,1.69,0,0,1,135.21,91.66Z"/><circle class="cls-12" cx="143.02" cy="103.28" r="1.88"/><path class="cls-13" d="M141.61,103.56a1.69,1.69,0,0,1,3.26-.64,1.88,1.88,0,1,0-2.21,2.21A1.7,1.7,0,0,1,141.61,103.56Z"/><circle class="cls-12" cx="138.47" cy="116.42" r="1.88"/><path class="cls-13" d="M137.06,116.71a1.69,1.69,0,0,1,3.26-.64,1.89,1.89,0,1,0-2.21,2.2A1.68,1.68,0,0,1,137.06,116.71Z"/><circle class="cls-12" cx="142.07" cy="130.35" r="1.88"/><path class="cls-13" d="M140.66,130.63a1.69,1.69,0,0,1,3.25-.64,1.88,1.88,0,1,0-2.2,2.21A1.7,1.7,0,0,1,140.66,130.63Z"/><circle class="cls-12" cx="137.17" cy="135.63" r="1.88"/><path class="cls-13" d="M135.76,135.91a1.69,1.69,0,0,1,3.26-.64,1.88,1.88,0,0,0-3.73.36,1.87,1.87,0,0,0,1.52,1.84A1.69,1.69,0,0,1,135.76,135.91Z"/><circle class="cls-12" cx="139.09" cy="148.2" r="1.88"/><path class="cls-13" d="M137.68,148.48a1.69,1.69,0,0,1,3.26-.64,1.88,1.88,0,1,0-2.21,2.21A1.71,1.71,0,0,1,137.68,148.48Z"/><circle class="cls-12" cx="126.37" cy="140.24" r="1.88"/><path class="cls-13" d="M125,140.52a1.69,1.69,0,0,1,1.69-1.69,1.71,1.71,0,0,1,1.57,1,1.88,1.88,0,1,0-2.21,2.21A1.69,1.69,0,0,1,125,140.52Z"/><circle class="cls-12" cx="121.58" cy="135.66" r="1.88"/><path class="cls-13" d="M120.17,135.94a1.69,1.69,0,0,1,3.26-.64,1.88,1.88,0,1,0-2.2,2.21A1.7,1.7,0,0,1,120.17,135.94Z"/><circle class="cls-12" cx="111.73" cy="142.09" r="1.88"/><path class="cls-13" d="M110.32,142.37a1.7,1.7,0,0,1,1.7-1.69,1.67,1.67,0,0,1,1.56,1,1.88,1.88,0,1,0-2.2,2.21A1.71,1.71,0,0,1,110.32,142.37Z"/><circle class="cls-12" cx="94.24" cy="143.14" r="1.88"/><path class="cls-13" d="M92.83,143.42a1.69,1.69,0,0,1,3.26-.64A1.88,1.88,0,1,0,93.88,145,1.7,1.7,0,0,1,92.83,143.42Z"/><circle class="cls-12" cx="83.4" cy="136.47" r="1.88"/><path class="cls-13" d="M82,136.76a1.69,1.69,0,0,1,3.26-.64,1.88,1.88,0,1,0-2.21,2.2A1.7,1.7,0,0,1,82,136.76Z"/><circle class="cls-12" cx="85.25" cy="155.89" r="1.88"/><path class="cls-13" d="M83.84,156.17a1.69,1.69,0,0,1,3.26-.64,1.89,1.89,0,1,0-2.21,2.2A1.67,1.67,0,0,1,83.84,156.17Z"/><circle class="cls-12" cx="72.2" cy="150.05" r="1.88"/><path class="cls-13" d="M70.79,150.33a1.69,1.69,0,0,1,3.26-.64,1.88,1.88,0,0,0-3.73.36,1.87,1.87,0,0,0,1.52,1.84A1.69,1.69,0,0,1,70.79,150.33Z"/><circle class="cls-12" cx="56.09" cy="151.89" r="1.88"/><path class="cls-13" d="M54.68,152.18a1.69,1.69,0,0,1,3.26-.64,1.88,1.88,0,1,0-2.21,2.2A1.7,1.7,0,0,1,54.68,152.18Z"/><circle class="cls-12" cx="42.04" cy="151.11" r="1.88"/><path class="cls-13" d="M40.63,151.39a1.69,1.69,0,0,1,3.26-.64,1.88,1.88,0,1,0-2.2,2.21A1.71,1.71,0,0,1,40.63,151.39Z"/><circle class="cls-12" cx="39.62" cy="138.36" r="1.88"/><path class="cls-13" d="M38.21,138.64a1.69,1.69,0,0,1,3.25-.64,1.88,1.88,0,1,0-2.2,2.21A1.7,1.7,0,0,1,38.21,138.64Z"/><circle class="cls-12" cx="40.16" cy="126.87" r="1.88"/><path class="cls-13" d="M38.75,127.15a1.69,1.69,0,0,1,3.26-.64,1.88,1.88,0,1,0-2.21,2.21A1.71,1.71,0,0,1,38.75,127.15Z"/><circle class="cls-12" cx="53.29" cy="114.54" r="1.88"/><path class="cls-13" d="M51.88,114.82a1.69,1.69,0,0,1,3.26-.64,1.88,1.88,0,1,0-2.21,2.21A1.71,1.71,0,0,1,51.88,114.82Z"/><circle class="cls-12" cx="27.79" cy="128.79" r="1.88"/><path class="cls-13" d="M26.38,129.07a1.69,1.69,0,0,1,3.26-.64,1.89,1.89,0,1,0-2.21,2.21A1.7,1.7,0,0,1,26.38,129.07Z"/><circle class="cls-12" cx="25.87" cy="115.3" r="1.88"/><path class="cls-13" d="M24.46,115.58a1.69,1.69,0,0,1,3.26-.64,1.89,1.89,0,1,0-2.21,2.2A1.67,1.67,0,0,1,24.46,115.58Z"/><circle class="cls-12" cx="22.09" cy="141.31" r="1.88"/><path class="cls-13" d="M20.68,141.6a1.69,1.69,0,0,1,3.26-.64,1.88,1.88,0,1,0-2.21,2.2A1.7,1.7,0,0,1,20.68,141.6Z"/><circle class="cls-12" cx="36.97" cy="154.76" r="1.88"/><path class="cls-13" d="M35.56,155a1.69,1.69,0,0,1,3.26-.64,1.89,1.89,0,1,0-2.21,2.21A1.7,1.7,0,0,1,35.56,155Z"/><circle class="cls-12" cx="65.69" cy="114.34" r="1.88"/><path class="cls-13" d="M64.28,114.62A1.69,1.69,0,0,1,66,112.93a1.71,1.71,0,0,1,1.57,1,1.89,1.89,0,1,0-2.21,2.21A1.69,1.69,0,0,1,64.28,114.62Z"/><circle class="cls-12" cx="35.92" cy="69.88" r="1.88"/><path class="cls-13" d="M34.51,70.16a1.69,1.69,0,0,1,3.26-.64,1.88,1.88,0,1,0-2.21,2.21A1.71,1.71,0,0,1,34.51,70.16Z"/><circle class="cls-12" cx="63.8" cy="67.5" r="1.88"/><path class="cls-13" d="M62.39,67.78a1.69,1.69,0,0,1,3.26-.64,1.88,1.88,0,1,0-2.2,2.21A1.71,1.71,0,0,1,62.39,67.78Z"/><circle class="cls-12" cx="65.48" cy="49.5" r="1.88"/><path class="cls-13" d="M64.07,49.78a1.69,1.69,0,0,1,3.26-.64,1.88,1.88,0,1,0-2.2,2.21A1.7,1.7,0,0,1,64.07,49.78Z"/><circle class="cls-12" cx="53.99" cy="127.95" r="1.88"/><path class="cls-13" d="M52.58,128.24a1.69,1.69,0,0,1,3.26-.64,1.89,1.89,0,1,0-2.21,2.2A1.68,1.68,0,0,1,52.58,128.24Z"/><circle class="cls-14" cx="45.81" cy="67.82" r="1.88"/><path class="cls-15" d="M44.4,68.11a1.69,1.69,0,0,1,3.26-.64,1.88,1.88,0,1,0-2.21,2.2A1.7,1.7,0,0,1,44.4,68.11Z"/><circle class="cls-14" cx="59.8" cy="40.25" r="1.88"/><path class="cls-15" d="M58.39,40.53a1.69,1.69,0,0,1,3.26-.64,1.88,1.88,0,1,0-2.2,2.2A1.68,1.68,0,0,1,58.39,40.53Z"/><circle class="cls-14" cx="76.19" cy="66.63" r="1.88"/><path class="cls-15" d="M74.78,66.91A1.69,1.69,0,0,1,78,66.27a1.89,1.89,0,1,0-2.21,2.2A1.67,1.67,0,0,1,74.78,66.91Z"/><circle class="cls-14" cx="97.08" cy="50.55" r="1.88"/><path class="cls-15" d="M95.67,50.83a1.69,1.69,0,0,1,3.26-.64,1.88,1.88,0,1,0-2.21,2.21A1.71,1.71,0,0,1,95.67,50.83Z"/><circle class="cls-14" cx="119.74" cy="40.17" r="1.88"/><path class="cls-15" d="M118.33,40.46a1.69,1.69,0,0,1,3.25-.64,1.88,1.88,0,1,0-2.2,2.2A1.68,1.68,0,0,1,118.33,40.46Z"/><circle class="cls-14" cx="129.19" cy="58.48" r="1.88"/><path class="cls-15" d="M127.78,58.76a1.69,1.69,0,0,1,3.26-.64,1.88,1.88,0,1,0-2.2,2.21A1.71,1.71,0,0,1,127.78,58.76Z"/><circle class="cls-14" cx="98.91" cy="71.76" r="1.88"/><path class="cls-15" d="M97.5,72.05a1.69,1.69,0,0,1,3.26-.64,1.88,1.88,0,1,0-2.21,2.2A1.7,1.7,0,0,1,97.5,72.05Z"/><circle class="cls-14" cx="96.82" cy="89.44" r="1.88"/><path class="cls-15" d="M95.41,89.72a1.69,1.69,0,0,1,3.26-.64,1.88,1.88,0,1,0-2.21,2.21A1.71,1.71,0,0,1,95.41,89.72Z"/><circle class="cls-14" cx="134.77" cy="102.45" r="1.88"/><path class="cls-15" d="M133.36,102.74a1.69,1.69,0,0,1,3.26-.64,1.88,1.88,0,1,0-2.21,2.2A1.7,1.7,0,0,1,133.36,102.74Z"/><circle class="cls-14" cx="131.81" cy="128.75" r="1.88"/><path class="cls-15" d="M130.4,129a1.69,1.69,0,0,1,1.69-1.69,1.71,1.71,0,0,1,1.57,1,1.89,1.89,0,1,0-2.21,2.21A1.69,1.69,0,0,1,130.4,129Z"/><circle class="cls-14" cx="105.43" cy="135.64" r="1.88"/><path class="cls-15" d="M104,135.93a1.7,1.7,0,0,1,1.7-1.7,1.68,1.68,0,0,1,1.56,1.06,1.88,1.88,0,1,0-2.2,2.2A1.69,1.69,0,0,1,104,135.93Z"/><circle class="cls-14" cx="73.04" cy="132.56" r="1.88"/><path class="cls-15" d="M71.63,132.84a1.69,1.69,0,0,1,3.25-.64,1.88,1.88,0,1,0-2.2,2.2A1.67,1.67,0,0,1,71.63,132.84Z"/><circle class="cls-14" cx="58.96" cy="115.54" r="1.88"/><path class="cls-15" d="M57.55,115.83a1.69,1.69,0,0,1,3.26-.64,1.88,1.88,0,1,0-2.21,2.2A1.7,1.7,0,0,1,57.55,115.83Z"/><circle class="cls-14" cx="78.07" cy="120.68" r="1.88"/><path class="cls-15" d="M76.66,121a1.69,1.69,0,0,1,3.26-.64,1.88,1.88,0,1,0-2.21,2.21A1.71,1.71,0,0,1,76.66,121Z"/><circle class="cls-14" cx="103.55" cy="109.71" r="1.88"/><path class="cls-15" d="M102.14,110a1.69,1.69,0,0,1,3.26-.64,1.88,1.88,0,1,0-2.21,2.21A1.71,1.71,0,0,1,102.14,110Z"/><circle class="cls-14" cx="56.35" cy="142.13" r="1.88"/><path class="cls-15" d="M54.94,142.41a1.69,1.69,0,0,1,3.26-.64A1.88,1.88,0,1,0,56,144,1.69,1.69,0,0,1,54.94,142.41Z"/><circle class="cls-14" cx="78.07" cy="145.82" r="1.88"/><path class="cls-15" d="M76.66,146.1a1.69,1.69,0,0,1,3.25-.64,1.88,1.88,0,0,0-3.73.36,1.89,1.89,0,0,0,1.53,1.85A1.7,1.7,0,0,1,76.66,146.1Z"/><circle class="cls-14" cx="101.7" cy="148.2" r="1.88"/><path class="cls-15" d="M100.29,148.48a1.69,1.69,0,0,1,3.26-.64,1.88,1.88,0,1,0-2.2,2.21A1.71,1.71,0,0,1,100.29,148.48Z"/><circle class="cls-14" cx="129.92" cy="151.28" r="1.88"/><path class="cls-15" d="M128.51,151.56a1.69,1.69,0,0,1,3.26-.64,1.88,1.88,0,1,0-2.2,2.21A1.7,1.7,0,0,1,128.51,151.56Z"/><circle class="cls-14" cx="72.18" cy="43.96" r="1.88"/><path class="cls-15" d="M70.77,44.24A1.69,1.69,0,0,1,74,43.6a1.88,1.88,0,1,0-2.21,2.21A1.71,1.71,0,0,1,70.77,44.24Z"/><circle class="cls-14" cx="37.08" cy="42.02" r="1.88"/><path class="cls-15" d="M35.67,42.3a1.69,1.69,0,0,1,3.26-.64,1.88,1.88,0,1,0-2.21,2.21A1.7,1.7,0,0,1,35.67,42.3Z"/><circle class="cls-14" cx="34.48" cy="61.71" r="1.88"/><path class="cls-15" d="M33.07,62a1.69,1.69,0,0,1,1.69-1.69,1.71,1.71,0,0,1,1.57,1.05,1.89,1.89,0,1,0-2.21,2.21A1.69,1.69,0,0,1,33.07,62Z"/><circle class="cls-14" cx="37.1" cy="99.55" r="1.88"/><path class="cls-15" d="M35.69,99.83A1.69,1.69,0,0,1,39,99.19a1.89,1.89,0,1,0-2.21,2.21A1.7,1.7,0,0,1,35.69,99.83Z"/><circle class="cls-14" cx="27.79" cy="134.44" r="1.88"/><path class="cls-15" d="M26.38,134.72a1.69,1.69,0,0,1,3.26-.64,1.89,1.89,0,1,0-2.21,2.21A1.7,1.7,0,0,1,26.38,134.72Z"/><circle class="cls-16" cx="47.24" cy="51.4" r="1.88"/><path class="cls-17" d="M45.83,51.69a1.69,1.69,0,0,1,3.26-.64,1.88,1.88,0,1,0-2.21,2.2A1.7,1.7,0,0,1,45.83,51.69Z"/><circle class="cls-16" cx="78.07" cy="36.42" r="1.88"/><path class="cls-17" d="M76.66,36.71a1.69,1.69,0,0,1,3.25-.64,1.88,1.88,0,1,0-2.2,2.2A1.68,1.68,0,0,1,76.66,36.71Z"/><circle class="cls-16" cx="88.4" cy="62.96" r="1.88"/><path class="cls-17" d="M87,63.24a1.69,1.69,0,0,1,3.25-.64A1.88,1.88,0,1,0,88,64.8,1.67,1.67,0,0,1,87,63.24Z"/><circle class="cls-16" cx="111.73" cy="74.69" r="1.88"/><path class="cls-17" d="M110.32,75a1.7,1.7,0,0,1,1.7-1.69,1.67,1.67,0,0,1,1.56,1,1.88,1.88,0,1,0-2.2,2.21A1.71,1.71,0,0,1,110.32,75Z"/><circle class="cls-16" cx="127.35" cy="47.71" r="1.88"/><path class="cls-17" d="M125.94,48a1.69,1.69,0,0,1,3.25-.64,1.88,1.88,0,1,0-2.2,2.21A1.7,1.7,0,0,1,125.94,48Z"/><circle class="cls-16" cx="125.46" cy="89.47" r="1.88"/><path class="cls-17" d="M124.05,89.76a1.69,1.69,0,0,1,3.26-.64,1.88,1.88,0,1,0-2.21,2.2A1.7,1.7,0,0,1,124.05,89.76Z"/><circle class="cls-16" cx="119.74" cy="119.89" r="1.88"/><path class="cls-17" d="M118.33,120.17a1.69,1.69,0,0,1,3.25-.64,1.88,1.88,0,0,0-3.73.36,1.89,1.89,0,0,0,1.53,1.85A1.69,1.69,0,0,1,118.33,120.17Z"/><circle class="cls-16" cx="142.07" cy="139.71" r="1.88"/><path class="cls-17" d="M140.66,140a1.69,1.69,0,0,1,3.25-.64,1.88,1.88,0,0,0-3.73.36,1.89,1.89,0,0,0,1.53,1.85A1.69,1.69,0,0,1,140.66,140Z"/><circle class="cls-16" cx="111.72" cy="154.51" r="1.88"/><path class="cls-17" d="M110.31,154.79a1.69,1.69,0,0,1,3.25-.64,1.88,1.88,0,0,0-3.73.36,1.89,1.89,0,0,0,1.53,1.85A1.69,1.69,0,0,1,110.31,154.79Z"/><circle class="cls-16" cx="92.36" cy="131.91" r="1.88"/><path class="cls-17" d="M91,132.19a1.69,1.69,0,0,1,3.25-.64,1.88,1.88,0,1,0-2.2,2.21A1.69,1.69,0,0,1,91,132.19Z"/><circle class="cls-16" cx="68.42" cy="154.76" r="1.88"/><path class="cls-17" d="M67,155a1.69,1.69,0,0,1,3.25-.64,1.88,1.88,0,1,0-2.2,2.21A1.7,1.7,0,0,1,67,155Z"/><circle class="cls-16" cx="50.28" cy="138.36" r="1.88"/><path class="cls-17" d="M48.86,138.64a1.7,1.7,0,0,1,1.7-1.69A1.67,1.67,0,0,1,52.12,138a1.88,1.88,0,1,0-2.2,2.21A1.71,1.71,0,0,1,48.86,138.64Z"/><circle class="cls-16" cx="46.51" cy="113.48" r="1.88"/><path class="cls-17" d="M45.1,113.76a1.69,1.69,0,0,1,3.26-.64,1.89,1.89,0,1,0-2.21,2.2A1.67,1.67,0,0,1,45.1,113.76Z"/><circle class="cls-16" cx="27.75" cy="89.49" r="1.88"/><path class="cls-17" d="M26.34,89.77a1.69,1.69,0,0,1,3.26-.64,1.88,1.88,0,1,0-2.21,2.21A1.7,1.7,0,0,1,26.34,89.77Z"/><circle class="cls-16" cx="25.9" cy="61.07" r="1.88"/><path class="cls-17" d="M24.49,61.35a1.69,1.69,0,0,1,3.26-.64,1.88,1.88,0,1,0-2.2,2.21A1.7,1.7,0,0,1,24.49,61.35Z"/><circle class="cls-16" cx="57.97" cy="70.92" r="1.88"/><path class="cls-17" d="M56.56,71.2a1.69,1.69,0,0,1,3.26-.64,1.88,1.88,0,1,0-2.2,2.21A1.7,1.7,0,0,1,56.56,71.2Z"/><circle class="cls-16" cx="78.98" cy="91.32" r="1.88"/><path class="cls-17" d="M77.57,91.6A1.69,1.69,0,0,1,80.83,91a1.88,1.88,0,1,0-2.21,2.21A1.7,1.7,0,0,1,77.57,91.6Z"/><circle class="cls-16" cx="77.1" cy="105.16" r="1.88"/><path class="cls-17" d="M75.69,105.45a1.69,1.69,0,0,1,3.26-.64,1.89,1.89,0,1,0-2.21,2.2A1.68,1.68,0,0,1,75.69,105.45Z"/><circle class="cls-16" cx="106.46" cy="79.28" r="1.88"/><path class="cls-17" d="M105.05,79.57a1.69,1.69,0,0,1,3.26-.64,1.88,1.88,0,1,0-2.2,2.2A1.69,1.69,0,0,1,105.05,79.57Z"/><circle class="cls-16" cx="62.67" cy="146.32" r="1.88"/><path class="cls-17" d="M61.26,146.6a1.69,1.69,0,0,1,3.26-.64,1.88,1.88,0,1,0-2.2,2.2A1.68,1.68,0,0,1,61.26,146.6Z"/><circle class="cls-16" cx="30.76" cy="151.16" r="1.88"/><path class="cls-17" d="M29.35,151.45a1.69,1.69,0,0,1,3.26-.64,1.88,1.88,0,1,0-2.2,2.2A1.69,1.69,0,0,1,29.35,151.45Z"/><circle class="cls-16" cx="97.06" cy="40.19" r="1.88"/><path class="cls-17" d="M95.65,40.47a1.69,1.69,0,0,1,3.26-.64A1.88,1.88,0,1,0,96.7,42,1.7,1.7,0,0,1,95.65,40.47Z"/><circle class="cls-16" cx="116.38" cy="54.01" r="1.88"/><path class="cls-17" d="M115,54.29a1.69,1.69,0,0,1,1.7-1.69,1.67,1.67,0,0,1,1.56,1,1.88,1.88,0,1,0-2.2,2.2A1.68,1.68,0,0,1,115,54.29Z"/><circle class="cls-16" cx="134.79" cy="75.46" r="1.88"/><path class="cls-17" d="M133.38,75.74a1.69,1.69,0,0,1,3.26-.64,1.88,1.88,0,0,0-3.73.36,1.87,1.87,0,0,0,1.52,1.84A1.69,1.69,0,0,1,133.38,75.74Z"/><circle class="cls-16" cx="131.08" cy="32.71" r="1.88"/><path class="cls-17" d="M129.67,33a1.69,1.69,0,0,1,3.25-.64,1.86,1.86,0,0,0-1.84-1.52,1.88,1.88,0,0,0-.36,3.73A1.69,1.69,0,0,1,129.67,33Z"/><circle class="cls-16" cx="26.9" cy="38.36" r="1.88"/><path class="cls-17" d="M25.49,38.64A1.69,1.69,0,0,1,28.75,38a1.88,1.88,0,1,0-2.2,2.21A1.7,1.7,0,0,1,25.49,38.64Z"/><circle class="cls-16" cx="32.58" cy="47.67" r="1.88"/><path class="cls-17" d="M31.17,48a1.69,1.69,0,0,1,3.25-.64,1.88,1.88,0,1,0-2.2,2.21A1.69,1.69,0,0,1,31.17,48Z"/><circle class="cls-16" cx="25.02" cy="124.22" r="1.88"/><path class="cls-17" d="M23.61,124.5a1.69,1.69,0,0,1,3.26-.64,1.88,1.88,0,1,0-2.21,2.21A1.7,1.7,0,0,1,23.61,124.5Z"/><circle class="cls-16" cx="104.58" cy="141.29" r="1.88"/><path class="cls-17" d="M103.17,141.58a1.69,1.69,0,0,1,3.26-.64,1.88,1.88,0,1,0-2.21,2.2A1.67,1.67,0,0,1,103.17,141.58Z"/><circle class="cls-16" cx="64.56" cy="101.43" r="1.88"/><path class="cls-17" d="M63.15,101.72a1.69,1.69,0,0,1,3.26-.64,1.89,1.89,0,1,0-2.21,2.2A1.68,1.68,0,0,1,63.15,101.72Z"/><circle class="cls-16" cx="63.79" cy="80.28" r="1.88"/><path class="cls-17" d="M62.38,80.57a1.69,1.69,0,0,1,3.25-.64,1.88,1.88,0,1,0-2.2,2.2A1.68,1.68,0,0,1,62.38,80.57Z"/><circle class="cls-16" cx="73.02" cy="60.25" r="1.88"/><path class="cls-17" d="M71.61,60.54a1.69,1.69,0,0,1,3.26-.64,1.89,1.89,0,1,0-2.21,2.2A1.68,1.68,0,0,1,71.61,60.54Z"/><circle class="cls-16" cx="125.46" cy="67.33" r="1.88"/><path class="cls-17" d="M124.05,67.61a1.69,1.69,0,0,1,3.26-.64,1.88,1.88,0,1,0-2.21,2.2A1.69,1.69,0,0,1,124.05,67.61Z"/><circle class="cls-16" cx="128.25" cy="103.74" r="1.88"/><path class="cls-17" d="M126.84,104a1.69,1.69,0,0,1,3.26-.64,1.88,1.88,0,1,0-2.21,2.21A1.7,1.7,0,0,1,126.84,104Z"/><circle class="cls-18" cx="54.04" cy="50.55" r="1.88"/><path class="cls-19" d="M52.63,50.83a1.69,1.69,0,0,1,3.26-.64,1.88,1.88,0,1,0-2.21,2.21A1.71,1.71,0,0,1,52.63,50.83Z"/><circle class="cls-18" cx="49.58" cy="106.41" r="1.88"/><path class="cls-19" d="M48.17,106.69a1.69,1.69,0,0,1,3.26-.64,1.89,1.89,0,1,0-2.21,2.2A1.67,1.67,0,0,1,48.17,106.69Z"/><circle class="cls-18" cx="72.2" cy="90.33" r="1.88"/><path class="cls-19" d="M70.79,90.61A1.69,1.69,0,0,1,74.05,90a1.88,1.88,0,1,0-2.21,2.21A1.7,1.7,0,0,1,70.79,90.61Z"/><circle class="cls-18" cx="82.35" cy="75.46" r="1.88"/><path class="cls-19" d="M80.94,75.74a1.69,1.69,0,0,1,3.26-.64A1.88,1.88,0,1,0,82,77.3,1.69,1.69,0,0,1,80.94,75.74Z"/><circle class="cls-18" cx="103.59" cy="51.44" r="1.88"/><path class="cls-19" d="M102.18,51.72a1.69,1.69,0,0,1,3.25-.64,1.88,1.88,0,0,0-3.73.36,1.89,1.89,0,0,0,1.53,1.85A1.7,1.7,0,0,1,102.18,51.72Z"/><circle class="cls-18" cx="114.89" cy="34.52" r="1.88"/><path class="cls-19" d="M113.48,34.8a1.69,1.69,0,0,1,1.69-1.69,1.71,1.71,0,0,1,1.57,1,1.88,1.88,0,1,0-2.21,2.21A1.69,1.69,0,0,1,113.48,34.8Z"/><circle class="cls-18" cx="136.69" cy="63.59" r="1.88"/><path class="cls-19" d="M135.28,63.88a1.69,1.69,0,0,1,3.26-.64,1.88,1.88,0,1,0-2.21,2.2A1.7,1.7,0,0,1,135.28,63.88Z"/><circle class="cls-18" cx="142.05" cy="108.29" r="1.88"/><path class="cls-19" d="M140.64,108.57a1.69,1.69,0,0,1,3.26-.64,1.89,1.89,0,1,0-2.21,2.21A1.7,1.7,0,0,1,140.64,108.57Z"/><circle class="cls-18" cx="117.85" cy="106.39" r="1.88"/><path class="cls-19" d="M116.44,106.67a1.69,1.69,0,0,1,3.26-.64,1.88,1.88,0,1,0-2.2,2.21A1.71,1.71,0,0,1,116.44,106.67Z"/><circle class="cls-18" cx="98.96" cy="126.9" r="1.88"/><path class="cls-19" d="M97.55,127.19a1.69,1.69,0,0,1,3.26-.64,1.88,1.88,0,1,0-2.2,2.2A1.69,1.69,0,0,1,97.55,127.19Z"/><circle class="cls-18" cx="105.93" cy="154.51" r="1.88"/><path class="cls-19" d="M104.52,154.79a1.69,1.69,0,0,1,1.69-1.69,1.71,1.71,0,0,1,1.57,1.05,1.89,1.89,0,1,0-2.21,2.21A1.69,1.69,0,0,1,104.52,154.79Z"/><circle class="cls-18" cx="85.06" cy="146.32" r="1.88"/><path class="cls-19" d="M83.65,146.6a1.69,1.69,0,0,1,3.26-.64,1.88,1.88,0,0,0-3.73.36,1.87,1.87,0,0,0,1.52,1.84A1.67,1.67,0,0,1,83.65,146.6Z"/><circle class="cls-18" cx="48.39" cy="154.49" r="1.88"/><path class="cls-19" d="M47,154.77a1.69,1.69,0,0,1,3.26-.64A1.88,1.88,0,1,0,48,156.34,1.7,1.7,0,0,1,47,154.77Z"/><circle class="cls-18" cx="20.21" cy="131.97" r="1.88"/><path class="cls-19" d="M18.8,132.25a1.69,1.69,0,0,1,3.25-.64,1.88,1.88,0,1,0-2.2,2.2A1.67,1.67,0,0,1,18.8,132.25Z"/><circle class="cls-18" cx="25.9" cy="98.67" r="1.88"/><path class="cls-19" d="M24.49,99a1.69,1.69,0,0,1,3.26-.64,1.88,1.88,0,1,0-2.2,2.2A1.69,1.69,0,0,1,24.49,99Z"/><circle class="cls-18" cx="39.63" cy="73.57" r="1.88"/><path class="cls-19" d="M38.22,73.86a1.69,1.69,0,0,1,3.26-.64,1.88,1.88,0,1,0-2.2,2.2A1.69,1.69,0,0,1,38.22,73.86Z"/><circle class="cls-18" cx="32.59" cy="56.56" r="1.88"/><path class="cls-19" d="M31.18,56.84a1.69,1.69,0,0,1,3.26-.64,1.88,1.88,0,1,0-2.2,2.21A1.71,1.71,0,0,1,31.18,56.84Z"/><circle class="cls-18" cx="47.69" cy="32.69" r="1.88"/><path class="cls-19" d="M46.28,33a1.7,1.7,0,0,1,1.7-1.7,1.68,1.68,0,0,1,1.56,1.06,1.88,1.88,0,1,0-2.2,2.2A1.69,1.69,0,0,1,46.28,33Z"/><circle class="cls-18" cx="116.4" cy="76.78" r="1.88"/><path class="cls-19" d="M115,77.06a1.69,1.69,0,0,1,3.26-.64,1.88,1.88,0,1,0-2.2,2.21A1.7,1.7,0,0,1,115,77.06Z"/><circle class="cls-18" cx="133.87" cy="52.4" r="1.88"/><path class="cls-19" d="M132.46,52.68a1.69,1.69,0,0,1,3.26-.64,1.89,1.89,0,1,0-2.21,2.2A1.67,1.67,0,0,1,132.46,52.68Z"/><circle class="cls-18" cx="105.93" cy="38.34" r="1.88"/><path class="cls-19" d="M104.52,38.63a1.69,1.69,0,0,1,3.26-.64,1.89,1.89,0,1,0-2.21,2.2A1.68,1.68,0,0,1,104.52,38.63Z"/><circle class="cls-18" cx="87.72" cy="98.71" r="1.88"/><path class="cls-19" d="M86.31,99a1.69,1.69,0,0,1,3.25-.64,1.88,1.88,0,0,0-3.73.36,1.89,1.89,0,0,0,1.53,1.85A1.69,1.69,0,0,1,86.31,99Z"/><circle class="cls-18" cx="65.5" cy="135.73" r="1.88"/><path class="cls-19" d="M64.09,136a1.69,1.69,0,0,1,3.26-.64,1.88,1.88,0,1,0-2.21,2.2A1.7,1.7,0,0,1,64.09,136Z"/><circle class="cls-18" cx="62.67" cy="58.41" r="1.88"/><path class="cls-19" d="M61.26,58.69a1.69,1.69,0,0,1,3.26-.64,1.88,1.88,0,1,0-2.2,2.2A1.68,1.68,0,0,1,61.26,58.69Z"/><circle class="cls-18" cx="86.94" cy="49.56" r="1.88"/><path class="cls-19" d="M85.53,49.84a1.69,1.69,0,0,1,3.26-.64,1.88,1.88,0,1,0-2.2,2.2A1.68,1.68,0,0,1,85.53,49.84Z"/><circle class="cls-20" cx="25.02" cy="47.71" r="1.88"/><path class="cls-21" d="M23.61,48a1.69,1.69,0,0,1,3.26-.64,1.88,1.88,0,1,0-2.21,2.21A1.71,1.71,0,0,1,23.61,48Z"/><circle class="cls-20" cx="58.94" cy="35" r="1.88"/><path class="cls-21" d="M57.53,35.28a1.69,1.69,0,0,1,3.26-.64,1.88,1.88,0,1,0-2.2,2.21A1.71,1.71,0,0,1,57.53,35.28Z"/><circle class="cls-20" cx="54.01" cy="78.4" r="1.88"/><path class="cls-21" d="M52.6,78.68A1.69,1.69,0,0,1,55.85,78a1.88,1.88,0,0,0-3.73.36,1.89,1.89,0,0,0,1.53,1.85A1.69,1.69,0,0,1,52.6,78.68Z"/><circle class="cls-20" cx="83.21" cy="83.05" r="1.88"/><path class="cls-21" d="M81.8,83.33a1.69,1.69,0,0,1,3.26-.64,1.88,1.88,0,1,0-2.21,2.21A1.7,1.7,0,0,1,81.8,83.33Z"/><circle class="cls-20" cx="95.93" cy="60.36" r="1.88"/><path class="cls-21" d="M94.52,60.64A1.69,1.69,0,0,1,97.77,60a1.88,1.88,0,1,0-2.2,2.21A1.69,1.69,0,0,1,94.52,60.64Z"/><circle class="cls-20" cx="111.93" cy="42.13" r="1.88"/><path class="cls-21" d="M110.52,42.41a1.69,1.69,0,0,1,3.25-.64,1.86,1.86,0,0,0-1.84-1.52,1.88,1.88,0,0,0-.36,3.73A1.7,1.7,0,0,1,110.52,42.41Z"/><circle class="cls-20" cx="119.74" cy="47.71" r="1.88"/><path class="cls-21" d="M118.33,48a1.69,1.69,0,0,1,3.25-.64,1.88,1.88,0,1,0-2.2,2.21A1.7,1.7,0,0,1,118.33,48Z"/><circle class="cls-20" cx="117.85" cy="66.72" r="1.88"/><path class="cls-21" d="M116.44,67a1.69,1.69,0,0,1,3.26-.64,1.88,1.88,0,1,0-2.2,2.21A1.7,1.7,0,0,1,116.44,67Z"/><circle class="cls-20" cx="129.96" cy="95.89" r="1.88"/><path class="cls-21" d="M128.55,96.17a1.69,1.69,0,0,1,3.26-.64,1.88,1.88,0,1,0-2.21,2.21A1.7,1.7,0,0,1,128.55,96.17Z"/><circle class="cls-20" cx="122.9" cy="112.39" r="1.88"/><path class="cls-21" d="M121.49,112.67a1.69,1.69,0,0,1,3.26-.64,1.88,1.88,0,1,0-2.2,2.21A1.7,1.7,0,0,1,121.49,112.67Z"/><circle class="cls-20" cx="114.52" cy="135.68" r="1.88"/><path class="cls-21" d="M113.11,136a1.69,1.69,0,0,1,1.69-1.69,1.71,1.71,0,0,1,1.57,1,1.88,1.88,0,1,0-2.21,2.21A1.7,1.7,0,0,1,113.11,136Z"/><circle class="cls-20" cx="119.74" cy="151.13" r="1.88"/><path class="cls-21" d="M118.33,151.41a1.69,1.69,0,0,1,3.25-.64,1.88,1.88,0,1,0-2.2,2.2A1.67,1.67,0,0,1,118.33,151.41Z"/><circle class="cls-20" cx="130.14" cy="135.73" r="1.88"/><path class="cls-21" d="M128.73,136a1.69,1.69,0,0,1,3.25-.64,1.88,1.88,0,1,0-2.2,2.2A1.68,1.68,0,0,1,128.73,136Z"/><circle class="cls-20" cx="79.91" cy="131.97" r="1.88"/><path class="cls-21" d="M78.5,132.25a1.69,1.69,0,0,1,3.26-.64,1.88,1.88,0,1,0-2.2,2.2A1.68,1.68,0,0,1,78.5,132.25Z"/><circle class="cls-20" cx="61.65" cy="154.06" r="1.88"/><path class="cls-21" d="M60.24,154.34a1.69,1.69,0,0,1,3.26-.64,1.88,1.88,0,0,0-3.73.36,1.87,1.87,0,0,0,1.52,1.84A1.69,1.69,0,0,1,60.24,154.34Z"/><circle class="cls-20" cx="137.15" cy="41.11" r="1.88"/><path class="cls-21" d="M135.74,41.39a1.69,1.69,0,0,1,3.26-.64A1.88,1.88,0,1,0,136.79,43,1.7,1.7,0,0,1,135.74,41.39Z"/><circle class="cls-20" cx="46.51" cy="133.8" r="1.88"/><path class="cls-21" d="M45.1,134.08a1.69,1.69,0,0,1,3.26-.64,1.89,1.89,0,1,0-2.21,2.2A1.67,1.67,0,0,1,45.1,134.08Z"/><circle class="cls-20" cx="33.37" cy="142.13" r="1.88"/><path class="cls-21" d="M32,142.41a1.69,1.69,0,0,1,3.25-.64A1.88,1.88,0,1,0,33,144,1.67,1.67,0,0,1,32,142.41Z"/><circle class="cls-20" cx="26.9" cy="146.28" r="1.88"/><path class="cls-21" d="M25.49,146.56a1.69,1.69,0,0,1,3.26-.64,1.88,1.88,0,1,0-2.2,2.21A1.71,1.71,0,0,1,25.49,146.56Z"/><circle class="cls-20" cx="27.79" cy="109.26" r="1.88"/><path class="cls-21" d="M26.38,109.54a1.69,1.69,0,0,1,1.69-1.69,1.71,1.71,0,0,1,1.57,1.05,1.89,1.89,0,1,0-2.21,2.21A1.7,1.7,0,0,1,26.38,109.54Z"/><circle class="cls-20" cx="26.87" cy="81.66" r="1.88"/><path class="cls-21" d="M25.46,82a1.69,1.69,0,0,1,3.26-.64,1.89,1.89,0,1,0-2.21,2.2A1.68,1.68,0,0,1,25.46,82Z"/><circle class="cls-20" cx="81.8" cy="67.86" r="1.88"/><path class="cls-21" d="M80.39,68.14a1.69,1.69,0,0,1,1.69-1.69,1.71,1.71,0,0,1,1.57,1,1.89,1.89,0,1,0-2.21,2.21A1.69,1.69,0,0,1,80.39,68.14Z"/><circle class="cls-20" cx="73.04" cy="49.59" r="1.88"/><path class="cls-21" d="M71.63,49.87a1.69,1.69,0,0,1,3.25-.64,1.88,1.88,0,1,0-2.2,2.21A1.69,1.69,0,0,1,71.63,49.87Z"/><circle class="cls-20" cx="102.68" cy="115.31" r="1.88"/><path class="cls-21" d="M101.27,115.6a1.69,1.69,0,0,1,3.26-.64,1.89,1.89,0,1,0-2.21,2.2A1.68,1.68,0,0,1,101.27,115.6Z"/><circle class="cls-20" cx="85.83" cy="120.68" r="1.88"/><path class="cls-21" d="M84.42,121a1.69,1.69,0,0,1,3.26-.64,1.88,1.88,0,1,0-2.21,2.21A1.71,1.71,0,0,1,84.42,121Z"/><circle class="cls-22" cx="46.51" cy="79.78" r="1.88"/><path class="cls-23" d="M45.1,80.06a1.69,1.69,0,0,1,1.69-1.69,1.71,1.71,0,0,1,1.57,1,1.89,1.89,0,1,0-2.21,2.21A1.69,1.69,0,0,1,45.1,80.06Z"/><circle class="cls-22" cx="66.91" cy="62.19" r="1.88"/><path class="cls-23" d="M65.5,62.47a1.69,1.69,0,0,1,3.26-.64A1.88,1.88,0,1,0,66.55,64,1.7,1.7,0,0,1,65.5,62.47Z"/><circle class="cls-22" cx="94.22" cy="79.3" r="1.88"/><path class="cls-23" d="M92.81,79.58A1.69,1.69,0,0,1,96.07,79a1.88,1.88,0,1,0-2.21,2.2A1.7,1.7,0,0,1,92.81,79.58Z"/><circle class="cls-22" cx="102.7" cy="66.72" r="1.88"/><path class="cls-23" d="M101.29,67a1.69,1.69,0,0,1,3.25-.64,1.88,1.88,0,1,0-2.2,2.21A1.69,1.69,0,0,1,101.29,67Z"/><circle class="cls-22" cx="122.87" cy="34.58" r="1.88"/><path class="cls-23" d="M121.46,34.86a1.69,1.69,0,0,1,3.26-.64,1.89,1.89,0,1,0-2.21,2.2A1.67,1.67,0,0,1,121.46,34.86Z"/><circle class="cls-22" cx="134.81" cy="85.72" r="1.88"/><path class="cls-23" d="M133.4,86a1.69,1.69,0,0,1,3.26-.64,1.89,1.89,0,1,0-2.21,2.2A1.67,1.67,0,0,1,133.4,86Z"/><circle class="cls-22" cx="143.93" cy="119.32" r="1.88"/><path class="cls-23" d="M142.52,119.6a1.69,1.69,0,0,1,3.26-.64,1.88,1.88,0,1,0-2.21,2.21A1.71,1.71,0,0,1,142.52,119.6Z"/><circle class="cls-22" cx="135.32" cy="141.31" r="1.88"/><path class="cls-23" d="M133.91,141.6a1.69,1.69,0,0,1,3.26-.64,1.88,1.88,0,1,0-2.21,2.2A1.7,1.7,0,0,1,133.91,141.6Z"/><circle class="cls-22" cx="121" cy="141.56" r="1.88"/><path class="cls-23" d="M119.59,141.84a1.69,1.69,0,0,1,3.26-.64,1.88,1.88,0,1,0-2.21,2.21A1.71,1.71,0,0,1,119.59,141.84Z"/><circle class="cls-22" cx="94.24" cy="102.44" r="1.88"/><path class="cls-23" d="M92.83,102.72a1.69,1.69,0,0,1,3.26-.64,1.88,1.88,0,0,0-3.73.36,1.87,1.87,0,0,0,1.52,1.84A1.69,1.69,0,0,1,92.83,102.72Z"/><circle class="cls-22" cx="70.26" cy="104.52" r="1.88"/><path class="cls-23" d="M68.85,104.8a1.69,1.69,0,0,1,3.26-.64,1.88,1.88,0,1,0-2.2,2.21A1.7,1.7,0,0,1,68.85,104.8Z"/><circle class="cls-22" cx="108.9" cy="124.22" r="1.88"/><path class="cls-23" d="M107.49,124.5a1.69,1.69,0,0,1,3.26-.64,1.88,1.88,0,1,0-2.2,2.21A1.7,1.7,0,0,1,107.49,124.5Z"/><circle class="cls-22" cx="93.3" cy="119.93" r="1.88"/><path class="cls-23" d="M91.88,120.21a1.69,1.69,0,0,1,1.7-1.69,1.67,1.67,0,0,1,1.56,1,1.88,1.88,0,1,0-2.2,2.2A1.68,1.68,0,0,1,91.88,120.21Z"/><circle class="cls-22" cx="76.18" cy="137.58" r="1.88"/><path class="cls-23" d="M74.77,137.86a1.69,1.69,0,0,1,3.26-.64,1.88,1.88,0,1,0-2.2,2.21A1.7,1.7,0,0,1,74.77,137.86Z"/><circle class="cls-22" cx="56.09" cy="121.81" r="1.88"/><path class="cls-23" d="M54.68,122.09a1.69,1.69,0,0,1,3.26-.64,1.88,1.88,0,1,0-2.21,2.21A1.7,1.7,0,0,1,54.68,122.09Z"/><circle class="cls-22" cx="43.44" cy="142.13" r="1.88"/><path class="cls-23" d="M42,142.41a1.69,1.69,0,0,1,3.25-.64,1.88,1.88,0,1,0-2.2,2.2A1.67,1.67,0,0,1,42,142.41Z"/><circle class="cls-22" cx="30.76" cy="114.28" r="1.88"/><path class="cls-23" d="M29.35,114.56a1.69,1.69,0,0,1,3.26-.64,1.88,1.88,0,1,0-2.2,2.2A1.68,1.68,0,0,1,29.35,114.56Z"/><circle class="cls-22" cx="31.52" cy="94.04" r="1.88"/><path class="cls-23" d="M30.11,94.33a1.69,1.69,0,0,1,3.26-.64,1.88,1.88,0,1,0-2.21,2.2A1.68,1.68,0,0,1,30.11,94.33Z"/><circle class="cls-22" cx="30.75" cy="65.48" r="1.88"/><path class="cls-23" d="M29.34,65.76a1.69,1.69,0,0,1,3.25-.64,1.88,1.88,0,1,0-2.2,2.21A1.7,1.7,0,0,1,29.34,65.76Z"/><circle class="cls-22" cx="35.94" cy="34.59" r="1.88"/><path class="cls-23" d="M34.53,34.88a1.69,1.69,0,0,1,3.26-.64,1.89,1.89,0,1,0-2.21,2.2A1.68,1.68,0,0,1,34.53,34.88Z"/><circle class="cls-24" cx="65.5" cy="72.8" r="1.88"/><path class="cls-25" d="M64.09,73.09a1.69,1.69,0,0,1,3.26-.64,1.88,1.88,0,1,0-2.21,2.2A1.7,1.7,0,0,1,64.09,73.09Z"/><circle class="cls-24" cx="80.87" cy="43.98" r="1.88"/><path class="cls-25" d="M79.46,44.26a1.69,1.69,0,0,1,3.25-.64,1.88,1.88,0,1,0-2.2,2.2A1.67,1.67,0,0,1,79.46,44.26Z"/><circle class="cls-24" cx="98.01" cy="76.57" r="1.88"/><path class="cls-25" d="M96.6,76.85a1.69,1.69,0,0,1,1.69-1.69,1.71,1.71,0,0,1,1.57,1,1.89,1.89,0,1,0-2.21,2.21A1.69,1.69,0,0,1,96.6,76.85Z"/><circle class="cls-24" cx="51.44" cy="119.93" r="1.88"/><path class="cls-25" d="M50,120.21a1.69,1.69,0,0,1,3.26-.64,1.88,1.88,0,1,0-2.2,2.2A1.68,1.68,0,0,1,50,120.21Z"/><circle class="cls-24" cx="33.4" cy="83.07" r="1.88"/><path class="cls-25" d="M32,83.35a1.69,1.69,0,0,1,3.26-.64,1.88,1.88,0,1,0-2.2,2.21A1.7,1.7,0,0,1,32,83.35Z"/><circle class="cls-24" cx="128.25" cy="119.91" r="1.88"/><path class="cls-25" d="M126.84,120.19a1.69,1.69,0,0,1,3.26-.64,1.88,1.88,0,1,0-2.21,2.21A1.71,1.71,0,0,1,126.84,120.19Z"/><circle class="cls-24" cx="139.09" cy="125.02" r="1.88"/><path class="cls-25" d="M137.68,125.3a1.69,1.69,0,0,1,3.26-.64,1.88,1.88,0,1,0-2.21,2.21A1.7,1.7,0,0,1,137.68,125.3Z"/><circle class="cls-24" cx="94.24" cy="149.32" r="1.88"/><path class="cls-25" d="M92.83,149.6a1.69,1.69,0,0,1,3.26-.64,1.88,1.88,0,0,0-3.73.36,1.87,1.87,0,0,0,1.52,1.84A1.69,1.69,0,0,1,92.83,149.6Z"/><circle class="cls-24" cx="85.28" cy="129.8" r="1.88"/><path class="cls-25" d="M83.87,130.08a1.69,1.69,0,0,1,3.26-.64,1.88,1.88,0,1,0-2.2,2.21A1.7,1.7,0,0,1,83.87,130.08Z"/><circle class="cls-24" cx="73.04" cy="110.51" r="1.88"/><path class="cls-25" d="M71.63,110.79a1.69,1.69,0,0,1,3.25-.64,1.88,1.88,0,1,0-2.2,2.21A1.7,1.7,0,0,1,71.63,110.79Z"/><circle class="cls-24" cx="37.82" cy="149.28" r="1.88"/><path class="cls-25" d="M36.41,149.56a1.69,1.69,0,0,1,3.26-.64,1.88,1.88,0,1,0-2.21,2.21A1.71,1.71,0,0,1,36.41,149.56Z"/><circle class="cls-24" cx="39.67" cy="116.16" r="1.88"/><path class="cls-25" d="M38.26,116.44A1.69,1.69,0,0,1,40,114.75a1.71,1.71,0,0,1,1.57,1A1.88,1.88,0,1,0,39.31,118,1.7,1.7,0,0,1,38.26,116.44Z"/><circle class="cls-24" cx="39.65" cy="89.49" r="1.88"/><path class="cls-25" d="M38.24,89.77a1.69,1.69,0,0,1,3.26-.64,1.88,1.88,0,1,0-2.21,2.21A1.7,1.7,0,0,1,38.24,89.77Z"/><circle class="cls-24" cx="48.39" cy="60.34" r="1.88"/><path class="cls-25" d="M47,60.63A1.69,1.69,0,0,1,50.24,60,1.88,1.88,0,1,0,48,62.19,1.7,1.7,0,0,1,47,60.63Z"/><circle class="cls-24" cx="52.16" cy="44.88" r="1.88"/><path class="cls-25" d="M50.75,45.16A1.69,1.69,0,0,1,54,44.52a1.88,1.88,0,1,0-2.21,2.21A1.7,1.7,0,0,1,50.75,45.16Z"/><circle class="cls-24" cx="100.85" cy="43.98" r="1.88"/><path class="cls-25" d="M99.44,44.26a1.69,1.69,0,0,1,3.26-.64,1.89,1.89,0,1,0-2.21,2.2A1.67,1.67,0,0,1,99.44,44.26Z"/><circle class="cls-24" cx="129.23" cy="76.55" r="1.88"/><path class="cls-25" d="M127.82,76.84a1.69,1.69,0,0,1,3.26-.64,1.88,1.88,0,1,0-2.21,2.2A1.68,1.68,0,0,1,127.82,76.84Z"/><circle class="cls-24" cx="122.9" cy="56.58" r="1.88"/><path class="cls-25" d="M121.49,56.86a1.69,1.69,0,0,1,3.26-.64,1.88,1.88,0,1,0-2.2,2.2A1.68,1.68,0,0,1,121.49,56.86Z"/><circle class="cls-24" cx="89.6" cy="88.5" r="1.88"/><path class="cls-25" d="M88.19,88.78a1.69,1.69,0,0,1,1.69-1.69,1.71,1.71,0,0,1,1.57,1,1.88,1.88,0,1,0-2.21,2.21A1.69,1.69,0,0,1,88.19,88.78Z"/><circle class="cls-24" cx="69.27" cy="142.13" r="1.88"/><path class="cls-25" d="M67.86,142.41a1.69,1.69,0,0,1,3.26-.64,1.88,1.88,0,0,0-3.73.36A1.87,1.87,0,0,0,68.91,144,1.67,1.67,0,0,1,67.86,142.41Z"/><circle class="cls-26" cx="39.74" cy="46.78" r="1.88"/><path class="cls-27" d="M38.33,47.06a1.69,1.69,0,0,1,3.26-.64,1.88,1.88,0,1,0-2.21,2.21A1.7,1.7,0,0,1,38.33,47.06Z"/><circle class="cls-26" cx="37.86" cy="107.43" r="1.88"/><path class="cls-27" d="M36.45,107.71A1.69,1.69,0,0,1,38.14,106a1.71,1.71,0,0,1,1.57,1,1.89,1.89,0,1,0-2.21,2.21A1.69,1.69,0,0,1,36.45,107.71Z"/><circle class="cls-26" cx="59.82" cy="48.66" r="1.88"/><path class="cls-27" d="M58.41,49a1.69,1.69,0,0,1,3.26-.64,1.88,1.88,0,1,0-2.21,2.2A1.7,1.7,0,0,1,58.41,49Z"/><circle class="cls-26" cx="80.87" cy="60.36" r="1.88"/><path class="cls-27" d="M79.46,60.64A1.69,1.69,0,0,1,82.71,60a1.88,1.88,0,1,0-2.2,2.21A1.69,1.69,0,0,1,79.46,60.64Z"/><circle class="cls-26" cx="141.14" cy="92.64" r="1.88"/><path class="cls-27" d="M139.73,92.92a1.69,1.69,0,0,1,3.25-.64,1.88,1.88,0,1,0-2.2,2.2A1.67,1.67,0,0,1,139.73,92.92Z"/><circle class="cls-26" cx="110.79" cy="56.59" r="1.88"/><path class="cls-27" d="M109.38,56.88a1.69,1.69,0,0,1,3.26-.64,1.89,1.89,0,1,0-2.21,2.2A1.68,1.68,0,0,1,109.38,56.88Z"/><circle class="cls-26" cx="132.02" cy="111.59" r="1.88"/><path class="cls-27" d="M130.61,111.87a1.69,1.69,0,0,1,3.26-.64,1.88,1.88,0,1,0-2.21,2.21A1.7,1.7,0,0,1,130.61,111.87Z"/><circle class="cls-26" cx="129.23" cy="42.13" r="1.88"/><path class="cls-27" d="M127.82,42.41a1.69,1.69,0,0,1,3.26-.64A1.88,1.88,0,1,0,128.87,44,1.7,1.7,0,0,1,127.82,42.41Z"/><circle class="cls-26" cx="108.9" cy="46.78" r="1.88"/><path class="cls-27" d="M107.49,47.06a1.69,1.69,0,0,1,3.26-.64,1.88,1.88,0,1,0-2.2,2.21A1.7,1.7,0,0,1,107.49,47.06Z"/><circle class="cls-26" cx="67.39" cy="38.36" r="1.88"/><path class="cls-27" d="M66,38.64A1.69,1.69,0,0,1,69.23,38,1.88,1.88,0,1,0,67,40.21,1.7,1.7,0,0,1,66,38.64Z"/><circle class="cls-26" cx="72.2" cy="81.19" r="1.88"/><path class="cls-27" d="M70.79,81.47a1.69,1.69,0,0,1,3.26-.64,1.88,1.88,0,0,0-3.73.36A1.87,1.87,0,0,0,71.84,83,1.69,1.69,0,0,1,70.79,81.47Z"/><circle class="cls-26" cx="110.04" cy="106.37" r="1.88"/><path class="cls-27" d="M108.63,106.65a1.69,1.69,0,0,1,3.26-.64,1.88,1.88,0,1,0-2.2,2.21A1.71,1.71,0,0,1,108.63,106.65Z"/><circle class="cls-26" cx="121.02" cy="128.79" r="1.88"/><path class="cls-27" d="M119.61,129.07a1.69,1.69,0,0,1,3.26-.64,1.88,1.88,0,1,0-2.21,2.21A1.71,1.71,0,0,1,119.61,129.07Z"/><circle class="cls-26" cx="97.08" cy="135.73" r="1.88"/><path class="cls-27" d="M95.67,136a1.69,1.69,0,0,1,3.26-.64,1.88,1.88,0,1,0-2.21,2.2A1.7,1.7,0,0,1,95.67,136Z"/><circle class="cls-26" cx="132.02" cy="88.48" r="1.88"/><path class="cls-27" d="M130.61,88.77a1.69,1.69,0,0,1,3.26-.64,1.88,1.88,0,1,0-2.21,2.2A1.7,1.7,0,0,1,130.61,88.77Z"/><circle class="cls-26" cx="112.64" cy="65.98" r="1.88"/><path class="cls-27" d="M111.23,66.26a1.69,1.69,0,0,1,3.25-.64,1.88,1.88,0,1,0-2.2,2.2A1.67,1.67,0,0,1,111.23,66.26Z"/><circle class="cls-26" cx="89.6" cy="55.52" r="1.88"/><path class="cls-27" d="M88.19,55.81a1.69,1.69,0,0,1,3.26-.64,1.88,1.88,0,1,0-2.21,2.2A1.67,1.67,0,0,1,88.19,55.81Z"/><circle class="cls-26" cx="41.59" cy="57.37" r="1.88"/><path class="cls-27" d="M40.18,57.65A1.69,1.69,0,0,1,41.87,56a1.71,1.71,0,0,1,1.57,1,1.88,1.88,0,1,0-2.21,2.21A1.69,1.69,0,0,1,40.18,57.65Z"/><circle class="cls-26" cx="43.47" cy="38.36" r="1.88"/><path class="cls-27" d="M42.06,38.64A1.69,1.69,0,0,1,45.32,38a1.88,1.88,0,1,0-2.21,2.21A1.7,1.7,0,0,1,42.06,38.64Z"/><circle class="cls-26" cx="29.67" cy="73.57" r="1.88"/><path class="cls-27" d="M28.26,73.85a1.69,1.69,0,0,1,3.26-.64,1.88,1.88,0,1,0-2.21,2.21A1.7,1.7,0,0,1,28.26,73.85Z"/><circle class="cls-26" cx="37.84" cy="133.83" r="1.88"/><path class="cls-27" d="M36.43,134.11a1.69,1.69,0,0,1,1.69-1.69,1.71,1.71,0,0,1,1.57,1.05,1.88,1.88,0,1,0-2.21,2.21A1.69,1.69,0,0,1,36.43,134.11Z"/><circle class="cls-26" cx="78.98" cy="154.06" r="1.88"/><path class="cls-27" d="M77.57,154.34a1.69,1.69,0,0,1,3.26-.64,1.88,1.88,0,1,0-2.21,2.2A1.69,1.69,0,0,1,77.57,154.34Z"/><circle class="cls-26" cx="68.79" cy="124.22" r="1.88"/><path class="cls-27" d="M67.38,124.5a1.69,1.69,0,0,1,3.26-.64,1.88,1.88,0,1,0-2.2,2.21A1.7,1.7,0,0,1,67.38,124.5Z"/><circle class="cls-26" cx="58.96" cy="109.28" r="1.88"/><path class="cls-27" d="M57.55,109.56a1.69,1.69,0,0,1,3.26-.64,1.88,1.88,0,1,0-2.21,2.21A1.71,1.71,0,0,1,57.55,109.56Z"/><circle class="cls-26" cx="78.07" cy="96.83" r="1.88"/><path class="cls-27" d="M76.66,97.11a1.69,1.69,0,0,1,3.25-.64,1.88,1.88,0,1,0-2.2,2.2A1.67,1.67,0,0,1,76.66,97.11Z"/><circle class="cls-26" cx="114.48" cy="119.89" r="1.88"/><path class="cls-27" d="M113.07,120.17a1.69,1.69,0,0,1,3.26-.64,1.88,1.88,0,1,0-2.2,2.21A1.7,1.7,0,0,1,113.07,120.17Z"/><circle class="cls-26" cx="132.96" cy="146.3" r="1.88"/><path class="cls-27" d="M131.55,146.58a1.69,1.69,0,0,1,3.26-.64,1.88,1.88,0,0,0-3.73.36,1.86,1.86,0,0,0,1.52,1.84A1.69,1.69,0,0,1,131.55,146.58Z"/><circle class="cls-26" cx="55.19" cy="62.25" r="1.88"/><path class="cls-27" d="M53.78,62.53A1.69,1.69,0,0,1,57,61.89a1.88,1.88,0,1,0-2.2,2.2A1.68,1.68,0,0,1,53.78,62.53Z"/><circle class="cls-26" cx="31.56" cy="125.02" r="1.88"/><path class="cls-27" d="M30.15,125.3a1.69,1.69,0,0,1,3.25-.64,1.88,1.88,0,0,0-3.73.36,1.89,1.89,0,0,0,1.53,1.85A1.69,1.69,0,0,1,30.15,125.3Z"/><circle class="cls-26" cx="39.74" cy="64.84" r="1.88"/><path class="cls-27" d="M38.33,65.12a1.69,1.69,0,0,1,3.26-.64,1.88,1.88,0,1,0-2.21,2.21A1.71,1.71,0,0,1,38.33,65.12Z"/><circle class="cls-26" cx="93.35" cy="48.59" r="1.88"/><path class="cls-27" d="M91.94,48.87a1.69,1.69,0,0,1,1.69-1.69,1.71,1.71,0,0,1,1.57,1A1.88,1.88,0,1,0,93,50.44,1.69,1.69,0,0,1,91.94,48.87Z"/><circle class="cls-26" cx="89.6" cy="139.71" r="1.88"/><path class="cls-27" d="M88.19,140a1.69,1.69,0,0,1,1.69-1.69,1.71,1.71,0,0,1,1.57,1,1.88,1.88,0,1,0-2.21,2.21A1.69,1.69,0,0,1,88.19,140Z"/><circle class="cls-26" cx="110.79" cy="147.43" r="1.88"/><path class="cls-27" d="M109.38,147.71a1.69,1.69,0,0,1,1.69-1.69,1.71,1.71,0,0,1,1.57,1,1.89,1.89,0,1,0-2.21,2.21A1.69,1.69,0,0,1,109.38,147.71Z"/><circle class="cls-26" cx="57.97" cy="133.85" r="1.88"/><path class="cls-27" d="M56.56,134.13a1.69,1.69,0,0,1,3.26-.64,1.88,1.88,0,1,0-2.2,2.21A1.7,1.7,0,0,1,56.56,134.13Z"/><circle class="cls-26" cx="51.46" cy="146.32" r="1.88"/><path class="cls-27" d="M50.05,146.6a1.69,1.69,0,0,1,3.26-.64,1.88,1.88,0,1,0-2.21,2.2A1.69,1.69,0,0,1,50.05,146.6Z"/><circle class="cls-28" cx="52.16" cy="88.5" r="2.99"/><circle class="cls-28" cx="107.02" cy="88.5" r="2.99"/></g></g></g></svg>